<?plantuml 1.2026.2?><svg xmlns="http://www.w3.org/2000/svg" xmlns:xlink="http://www.w3.org/1999/xlink" contentStyleType="text/css" data-diagram-type="DESCRIPTION" height="833px" preserveAspectRatio="none" style="width:515px;height:833px;background:#FFFFFF;" version="1.1" viewBox="0 0 515 833" width="515px" zoomAndPan="magnify"><title>&#20174;&#29983;&#20135;&#22833;&#36133;&#29983;&#25104;&#21487;&#22238;&#25918;&#35780;&#27979;</title><defs/><g><g class="title" data-source-line="1"><text fill="#000000" font-family="'PingFang SC'" font-size="14" font-weight="bold" lengthAdjust="spacing" textLength="168" x="166.75" y="24.84">&#20174;&#29983;&#20135;&#22833;&#36133;&#29983;&#25104;&#21487;&#22238;&#25918;&#35780;&#27979;</text></g><!--entity run--><g class="entity" data-qualified-name="run" data-source-line="14" id="ent0002"><rect fill="#E0F2FE" height="59.2" rx="4" ry="4" style="stroke:#475569;stroke-width:0.5;" width="219.822" x="52.09" y="47.6"/><text fill="#000000" font-family="'PingFang SC'" font-size="14" lengthAdjust="spacing" textLength="57.792" x="62.09" y="72.44">&#29983;&#20135; Run</text><text fill="#000000" font-family="'PingFang SC'" font-size="14" lengthAdjust="spacing" textLength="199.822" x="62.09" y="92.04">trace + artifacts + user impact</text></g><!--entity classify--><g class="entity" data-qualified-name="classify" data-source-line="15" id="ent0003"><rect fill="#F8FAFC" height="59.2" rx="4" ry="4" style="stroke:#475569;stroke-width:0.5;" width="284.88" x="19.56" y="167.8"/><text fill="#000000" font-family="'PingFang SC'" font-size="14" lengthAdjust="spacing" textLength="56" x="29.56" y="192.64">&#22833;&#36133;&#24402;&#22240;</text><text fill="#000000" font-family="'PingFang SC'" font-size="14" lengthAdjust="spacing" textLength="264.88" x="29.56" y="212.24">context / model / tool / policy / runtime</text></g><!--entity case--><g class="entity" data-qualified-name="case" data-source-line="16" id="ent0004"><rect fill="#FEF3C7" height="59.2" rx="4" ry="4" style="stroke:#475569;stroke-width:0.5;" width="216.308" x="53.85" y="288"/><text fill="#000000" font-family="'PingFang SC'" font-size="14" lengthAdjust="spacing" textLength="98" x="63.85" y="312.84">&#26368;&#23567;&#21487;&#22797;&#29616;&#22330;&#26223;</text><text fill="#000000" font-family="'PingFang SC'" font-size="14" lengthAdjust="spacing" textLength="196.308" x="63.85" y="332.44">&#22266;&#23450;&#36755;&#20837;&#12289;&#29615;&#22659;&#12289;mocks&#12289;&#26029;&#35328;</text></g><!--entity review--><g class="entity" data-qualified-name="review" data-source-line="17" id="ent0005"><rect fill="#F8FAFC" height="59.2" rx="4" ry="4" style="stroke:#475569;stroke-width:0.5;" width="173.328" x="75.34" y="408.2"/><text fill="#000000" font-family="'PingFang SC'" font-size="14" lengthAdjust="spacing" textLength="98" x="85.34" y="433.04">&#23433;&#20840;&#33073;&#25935;&#19982;&#23457;&#26680;</text><text fill="#000000" font-family="'PingFang SC'" font-size="14" lengthAdjust="spacing" textLength="153.328" x="85.34" y="452.64">owner / risk / retention</text></g><!--entity suite--><g class="entity" data-qualified-name="suite" data-source-line="18" id="ent0006"><rect fill="#F8FAFC" height="59.2" rx="4" ry="4" style="stroke:#475569;stroke-width:0.5;" width="167.588" x="78.21" y="528.4"/><text fill="#000000" font-family="'PingFang SC'" font-size="14" lengthAdjust="spacing" textLength="42" x="88.21" y="553.24">&#22238;&#24402;&#38598;</text><text fill="#000000" font-family="'PingFang SC'" font-size="14" lengthAdjust="spacing" textLength="147.588" x="88.21" y="572.84">&#33021;&#21147;&#26742; + &#23432;&#38376;&#26742; + &#29256;&#26412;</text></g><!--entity fix--><g class="entity" data-qualified-name="fix" data-source-line="19" id="ent0007"><rect fill="#F8FAFC" height="59.2" rx="4" ry="4" style="stroke:#475569;stroke-width:0.5;" width="160" x="7" y="648.6"/><text fill="#000000" font-family="'PingFang SC'" font-size="14" lengthAdjust="spacing" textLength="56" x="17" y="673.44">&#20505;&#36873;&#20462;&#22797;</text><text fill="#000000" font-family="'PingFang SC'" font-size="14" lengthAdjust="spacing" textLength="140" x="17" y="693.04">&#19968;&#27425;&#21482;&#25913;&#21464;&#21487;&#24402;&#22240;&#21464;&#37327;</text></g><!--entity release--><g class="entity" data-qualified-name="release" data-source-line="20" id="ent0008"><rect fill="#DCFCE7" height="59.2" rx="4" ry="4" style="stroke:#475569;stroke-width:0.5;" width="202" x="61" y="768.8"/><text fill="#000000" font-family="'PingFang SC'" font-size="14" lengthAdjust="spacing" textLength="101.794" x="71" y="793.64">&#31163;&#32447;&#22238;&#25918; + &#28784;&#24230;</text><text fill="#000000" font-family="'PingFang SC'" font-size="14" lengthAdjust="spacing" textLength="182" x="71" y="813.24">&#20462;&#22797;&#36890;&#36807;&#19988;&#26080;&#26032;&#22686;&#39640;&#39118;&#38505;&#22833;&#36133;</text></g><g class="entity" data-qualified-name="GMN16" data-source-line="31" id="ent0017"><path d="M305.5,297 L305.5,313.6 L270.62,317.6 L305.5,321.6 L305.5,338.2 A4,4 0 0 0 309.5,342.2 L504.5,342.2 A4,4 0 0 0 508.5,338.2 L508.5,303 L498.5,293 L309.5,293 A4,4 0 0 0 305.5,297" fill="#FEFFDD" style="stroke:#181818;stroke-width:0.5;"/><path d="M498.5,293 L498.5,301 A2,2 0 0 0 500.5,303 L508.5,303 L498.5,293" fill="#FEFFDD" style="stroke:#181818;stroke-width:0.5;"/><text fill="#000000" font-family="'PingFang SC'" font-size="14" lengthAdjust="spacing" textLength="140" x="311.5" y="312.84">&#20445;&#23384;&#30340;&#26159;&#22833;&#36133;&#19981;&#21464;&#37327;&#65292;</text><text fill="#000000" font-family="'PingFang SC'" font-size="14" lengthAdjust="spacing" textLength="182" x="311.5" y="332.44">&#19981;&#26159;&#25226;&#25972;&#27573;&#29983;&#20135;&#20250;&#35805;&#21407;&#26679;&#22797;&#21046;</text></g><!--link run to classify--><g class="link" data-entity-1="ent0002" data-entity-2="ent0003" data-link-type="dependency" data-source-line="22" id="lnk9"><path d="M162,107.12 C162,125.43 162,143.04 162,161.37" fill="none" id="run-to-classify" style="stroke:#475569;stroke-width:1;"/><polygon fill="#475569" points="162,167.37,166,158.37,162,162.37,158,158.37,162,167.37" style="stroke:#475569;stroke-width:1;"/></g><!--link classify to case--><g class="link" data-entity-1="ent0003" data-entity-2="ent0004" data-link-type="dependency" data-source-line="23" id="lnk10"><path d="M162,227.32 C162,245.63 162,263.24 162,281.57" fill="none" id="classify-to-case" style="stroke:#475569;stroke-width:1;"/><polygon fill="#475569" points="162,287.57,166,278.57,162,282.57,158,278.57,162,287.57" style="stroke:#475569;stroke-width:1;"/></g><!--link case to review--><g class="link" data-entity-1="ent0004" data-entity-2="ent0005" data-link-type="dependency" data-source-line="24" id="lnk11"><path d="M162,347.52 C162,365.83 162,383.44 162,401.77" fill="none" id="case-to-review" style="stroke:#475569;stroke-width:1;"/><polygon fill="#475569" points="162,407.77,166,398.77,162,402.77,158,398.77,162,407.77" style="stroke:#475569;stroke-width:1;"/></g><!--link review to suite--><g class="link" data-entity-1="ent0005" data-entity-2="ent0006" data-link-type="dependency" data-source-line="25" id="lnk12"><path d="M162,467.72 C162,486.03 162,503.64 162,521.97" fill="none" id="review-to-suite" style="stroke:#475569;stroke-width:1;"/><polygon fill="#475569" points="162,527.97,166,518.97,162,522.97,158,518.97,162,527.97" style="stroke:#475569;stroke-width:1;"/></g><!--link suite to fix--><g class="link" data-entity-1="ent0006" data-entity-2="ent0007" data-link-type="dependency" data-source-line="26" id="lnk13"><path d="M143.65,587.92 C132.03,606.23 120.2645,624.7737 108.6345,643.1037" fill="none" id="suite-to-fix" style="stroke:#475569;stroke-width:1;"/><polygon fill="#475569" points="105.42,648.17,113.6192,642.7135,108.0987,643.9481,106.8642,638.4276,105.42,648.17" style="stroke:#475569;stroke-width:1;"/></g><!--link fix to release--><g class="link" data-entity-1="ent0007" data-entity-2="ent0008" data-link-type="dependency" data-source-line="27" id="lnk14"><path d="M105.35,708.11 C116.97,726.43 128.7355,744.9737 140.3655,763.3037" fill="none" id="fix-to-release" style="stroke:#475569;stroke-width:1;"/><polygon fill="#475569" points="143.58,768.37,142.1358,758.6276,140.9013,764.1481,135.3808,762.9135,143.58,768.37" style="stroke:#475569;stroke-width:1;"/></g><!--link release to suite--><g class="link" data-entity-1="ent0008" data-entity-2="ent0006" data-link-type="dependency" data-source-line="28" id="lnk15"><path d="M170.92,768.67 C175.87,751.25 181.5,728.47 184,707.8 C187.16,681.68 187.16,674.72 184,648.6 C181.5,627.93 177.51,610.9215 172.56,593.5015" fill="none" id="release-to-suite" style="stroke:#475569;stroke-width:1;"/><polygon fill="#475569" points="170.92,587.73,169.5323,597.4806,172.2867,592.5396,177.2277,595.2939,170.92,587.73" style="stroke:#475569;stroke-width:1;"/><text fill="#000000" font-family="'PingFang SC'" font-size="14" lengthAdjust="spacing" textLength="98" x="187.37" y="683.54">&#26032;&#22833;&#36133;&#32487;&#32493;&#27785;&#28096;</text></g><?plantuml-src RLDBKnD14BxlhvWAHulo1O8UhCAOFLgMN7DPDvEmbSqCjJine6NLKe0cA8cb0KB28o0l5P9WyOW9a1_ZpcJtv5zmTeV7nlAGTCzCzzVzVTrBDA93OBVptUAwtTgbMuVEqJRtMVOJBTHfPOqLBvpw33l-84bcKaFZYg6am4j5JIOCd4QnCDQn0J9Z6e61znYCAscTo1YHPqeAWj1p3ILa1IN0Q3Zq_xXHxJK4TmS2Z-QO4iCPdWZYYcu6uVtAAZOGDC1mu7x4C716TDGtC3Gu-E1XC0cgX7V0sRwH07Y2ZHWqUcFvxJ-y-kHXUKGEIsybwIOz9AG2Bz8eYeYXg13S0ef1jBYY4fFxQPFtfQN6-J4451COQGJw8dVaUt8a22EqfkUVQQKQHIhN04uGS1kaS0pgt1ACFJEETKsTv0w78LeA-f2ghfYc5fyCuh4LYpOAtjIsvhlv1brfiULw5D5AYzRApiKNEhlzsvhgvkjqSvexAQmcJMxPue6pPmbKnOISSqI-7nxgwRIMexDxpimXMoZOpJojRR1gCufmnXi0Rqmpavw11F8ECHAauIiDPdfGAckSh5jv5qNEz3cTgx2D4wuMhMNTfJtXTtDPjhBlvvjfRwM2wTQoQ-NiJetJYoAxQR7z3Lhupeg_QA7aiVQ5vBxxlk0ZnBM9dgdjjBkjZjXehzHKWxPsE90Fw5fbf_FURXRPKfKjDkZcclkZv7xDkylVn9WkEUdGb-XfM0v7XlXIyCdszp--6SUL8svvhEHhwfsk1V6CVoCe-l_-sMkO_owZ_LBILSdhUF08U0sAxxIzssqVi9yvTcf94iByrT0IOmJWk2WEWDrPfGUbRdc6bUeYoMxE2v7-d7tq0fhp_8dDpR658rOx5hjjdvMT-YhDhxFgALU7PayaY6B0g_0N?></g></svg>