<?plantuml 1.2026.2?><svg xmlns="http://www.w3.org/2000/svg" xmlns:xlink="http://www.w3.org/1999/xlink" contentStyleType="text/css" data-diagram-type="DESCRIPTION" height="450px" preserveAspectRatio="none" style="width:1074px;height:450px;background:#FFFFFF;" version="1.1" viewBox="0 0 1074 450" width="1074px" zoomAndPan="magnify"><title>Agent &#22833;&#36133;&#36335;&#24452;&#25104;&#26412;&#26641;</title><defs/><g><g class="title" data-source-line="1"><text fill="#000000" font-family="'PingFang SC'" font-size="14" font-weight="bold" lengthAdjust="spacing" textLength="141.736" x="459.132" y="24.84">Agent &#22833;&#36133;&#36335;&#24452;&#25104;&#26412;&#26641;</text></g><!--entity run--><g class="entity" data-qualified-name="run" data-source-line="14" id="ent0002"><rect fill="#E0F2FE" height="39.6" rx="4" ry="4" style="stroke:#475569;stroke-width:0.5;" width="45.13" x="591.43" y="47.6"/><text fill="#000000" font-family="'PingFang SC'" font-size="14" lengthAdjust="spacing" textLength="25.13" x="601.43" y="72.44">Run</text></g><!--entity model--><g class="entity" data-qualified-name="model" data-source-line="15" id="ent0003"><rect fill="#F8FAFC" height="59.2" rx="4" ry="4" style="stroke:#475569;stroke-width:0.5;" width="202" x="7" y="147.2"/><text fill="#000000" font-family="'PingFang SC'" font-size="14" lengthAdjust="spacing" textLength="91.784" x="17" y="172.04">&#27169;&#22411; Attempts</text><text fill="#000000" font-family="'PingFang SC'" font-size="14" lengthAdjust="spacing" textLength="182" x="17" y="191.64">&#36755;&#20837;&#12289;&#36755;&#20986;&#12289;&#32531;&#23384;&#12289;&#26029;&#27969;&#28010;&#36153;</text></g><!--entity context--><g class="entity" data-qualified-name="context" data-source-line="16" id="ent0004"><rect fill="#F8FAFC" height="59.2" rx="4" ry="4" style="stroke:#475569;stroke-width:0.5;" width="229.692" x="244.15" y="147.2"/><text fill="#000000" font-family="'PingFang SC'" font-size="14" lengthAdjust="spacing" textLength="84" x="254.15" y="172.04">&#26816;&#32034;&#19982;&#19978;&#19979;&#25991;</text><text fill="#000000" font-family="'PingFang SC'" font-size="14" lengthAdjust="spacing" textLength="209.692" x="254.15" y="191.64">embedding&#12289;rerank&#12289;&#37325;&#22797; token</text></g><!--entity tools--><g class="entity" data-qualified-name="tools" data-source-line="17" id="ent0005"><rect fill="#F8FAFC" height="59.2" rx="4" ry="4" style="stroke:#475569;stroke-width:0.5;" width="209.504" x="509.25" y="147.2"/><text fill="#000000" font-family="'PingFang SC'" font-size="14" lengthAdjust="spacing" textLength="70" x="519.25" y="172.04">&#24037;&#20855;&#19982;&#27801;&#31665;</text><text fill="#000000" font-family="'PingFang SC'" font-size="14" lengthAdjust="spacing" textLength="189.504" x="519.25" y="191.64">API&#12289;&#27983;&#35272;&#22120;&#12289;&#35745;&#31639;&#12289;&#22833;&#36133;&#25805;&#20316;</text></g><!--entity infra--><g class="entity" data-qualified-name="infra" data-source-line="18" id="ent0006"><rect fill="#F8FAFC" height="59.2" rx="4" ry="4" style="stroke:#475569;stroke-width:0.5;" width="160" x="754" y="147.2"/><text fill="#000000" font-family="'PingFang SC'" font-size="14" lengthAdjust="spacing" textLength="98" x="764" y="172.04">&#31561;&#24453;&#19982;&#22522;&#30784;&#35774;&#26045;</text><text fill="#000000" font-family="'PingFang SC'" font-size="14" lengthAdjust="spacing" textLength="140" x="764" y="191.64">&#36830;&#25509;&#12289;&#38431;&#21015;&#12289;&#29366;&#24577;&#23384;&#20648;</text></g><!--entity human--><g class="entity" data-qualified-name="human" data-source-line="19" id="ent0007"><rect fill="#FEF3C7" height="59.2" rx="4" ry="4" style="stroke:#475569;stroke-width:0.5;" width="202" x="866" y="266.4"/><text fill="#000000" font-family="'PingFang SC'" font-size="14" lengthAdjust="spacing" textLength="56" x="876" y="291.24">&#20154;&#24037;&#25104;&#26412;</text><text fill="#000000" font-family="'PingFang SC'" font-size="14" lengthAdjust="spacing" textLength="182" x="876" y="310.84">&#30830;&#35748;&#12289;&#32416;&#38169;&#12289;&#25509;&#31649;&#12289;&#20107;&#25925;&#22788;&#29702;</text></g><!--entity waste--><g class="entity" data-qualified-name="waste" data-source-line="20" id="ent0008"><rect fill="#FEE2E2" height="59.2" rx="4" ry="4" style="stroke:#475569;stroke-width:0.5;" width="313.384" x="375.31" y="266.4"/><text fill="#000000" font-family="'PingFang SC'" font-size="14" lengthAdjust="spacing" textLength="88.816" x="385.31" y="291.24">Failure Waste</text><text fill="#000000" font-family="'PingFang SC'" font-size="14" lengthAdjust="spacing" textLength="293.384" x="385.31" y="310.84">&#26080;&#32467;&#26524; attempts / &#37325;&#22797;&#24037;&#20855; / &#24490;&#29615; / &#36229;&#26102;&#27531;&#30041;</text></g><!--entity ledger--><g class="entity" data-qualified-name="ledger" data-source-line="21" id="ent0009"><rect fill="#DCFCE7" height="59.2" rx="4" ry="4" style="stroke:#475569;stroke-width:0.5;" width="240.696" x="516.65" y="385.6"/><text fill="#000000" font-family="'PingFang SC'" font-size="14" lengthAdjust="spacing" textLength="80.458" x="526.65" y="410.44">Cost Ledger</text><text fill="#000000" font-family="'PingFang SC'" font-size="14" lengthAdjust="spacing" textLength="220.696" x="526.65" y="430.04">run -&gt; step -&gt; attempt/operation</text></g><!--link run to model--><g class="link" data-entity-1="ent0002" data-entity-2="ent0003" data-link-type="dependency" data-source-line="23" id="lnk10"><path d="M591.26,72.74 C531.46,84.22 364.89,116.6 227,147.2 C221.19,148.49 221.0778,148.4972 215.0678,149.8772" fill="none" id="run-to-model" style="stroke:#475569;stroke-width:1;"/><polygon fill="#475569" points="209.22,151.22,218.8869,153.1044,214.0932,150.101,217.0966,145.3073,209.22,151.22" style="stroke:#475569;stroke-width:1;"/></g><!--link run to context--><g class="link" data-entity-1="ent0002" data-entity-2="ent0004" data-link-type="dependency" data-source-line="24" id="lnk11"><path d="M591.37,77.93 C555.11,93.2 488.0595,121.441 433.6195,144.371" fill="none" id="run-to-context" style="stroke:#475569;stroke-width:1;"/><polygon fill="#475569" points="428.09,146.7,437.937,146.8928,432.6979,144.7591,434.8316,139.5201,428.09,146.7" style="stroke:#475569;stroke-width:1;"/></g><!--link run to tools--><g class="link" data-entity-1="ent0002" data-entity-2="ent0005" data-link-type="dependency" data-source-line="25" id="lnk12"><path d="M614,87.6 C614,104.13 614,122.23 614,141.06" fill="none" id="run-to-tools" style="stroke:#475569;stroke-width:1;"/><polygon fill="#475569" points="614,147.06,618,138.06,614,142.06,610,138.06,614,147.06" style="stroke:#475569;stroke-width:1;"/></g><!--link run to infra--><g class="link" data-entity-1="ent0002" data-entity-2="ent0006" data-link-type="dependency" data-source-line="26" id="lnk13"><path d="M636.72,79.49 C668.99,95.25 723.8585,122.0271 769.3185,144.2271" fill="none" id="run-to-infra" style="stroke:#475569;stroke-width:1;"/><polygon fill="#475569" points="774.71,146.86,768.378,139.3164,770.2171,144.6659,764.8675,146.505,774.71,146.86" style="stroke:#475569;stroke-width:1;"/></g><!--link run to human--><g class="link" data-entity-1="ent0002" data-entity-2="ent0007" data-link-type="dependency" data-source-line="27" id="lnk14"><path d="M636.96,71.03 C702.59,79.01 888.99,105 931,147.2 C962.39,178.74 968.0239,226.7901 968.2239,260.0601" fill="none" id="run-to-human" style="stroke:#475569;stroke-width:1;"/><polygon fill="#475569" points="968.26,266.06,972.2058,257.0361,968.2299,261.0601,964.206,257.0842,968.26,266.06" style="stroke:#475569;stroke-width:1;"/></g><!--link model to waste--><g class="link" data-entity-1="ent0003" data-entity-2="ent0008" data-link-type="dependency" data-source-line="28" id="lnk15"><path d="M209.29,205.8 C275.06,223.98 354.817,246.0211 421.297,264.4011" fill="none" id="model-to-waste" style="stroke:#475569;stroke-width:1;"/><polygon fill="#475569" points="427.08,266,419.4713,259.7463,422.2608,264.6676,417.3395,267.4571,427.08,266" style="stroke:#475569;stroke-width:1;"/></g><!--link context to waste--><g class="link" data-entity-1="ent0004" data-entity-2="ent0008" data-link-type="dependency" data-source-line="29" id="lnk16"><path d="M401.76,206.77 C428.38,224.8 457.5228,244.5445 484.1628,262.5945" fill="none" id="context-to-waste" style="stroke:#475569;stroke-width:1;"/><polygon fill="#475569" points="489.13,265.96,483.9229,257.6002,484.9907,263.1554,479.4355,264.2232,489.13,265.96" style="stroke:#475569;stroke-width:1;"/></g><!--link tools to waste--><g class="link" data-entity-1="ent0005" data-entity-2="ent0008" data-link-type="dependency" data-source-line="30" id="lnk17"><path d="M593.73,206.77 C581.11,224.8 568.3899,242.994 555.7599,261.044" fill="none" id="tools-to-waste" style="stroke:#475569;stroke-width:1;"/><polygon fill="#475569" points="552.32,265.96,560.7571,260.8792,555.1866,261.8633,554.2024,256.2927,552.32,265.96" style="stroke:#475569;stroke-width:1;"/></g><!--link infra to waste--><g class="link" data-entity-1="ent0006" data-entity-2="ent0008" data-link-type="dependency" data-source-line="31" id="lnk18"><path d="M759.35,206.77 C712.89,224.8 658.9334,245.7388 612.4334,263.7888" fill="none" id="infra-to-waste" style="stroke:#475569;stroke-width:1;"/><polygon fill="#475569" points="606.84,265.96,616.6775,266.4321,611.5012,264.1507,613.7826,258.9743,606.84,265.96" style="stroke:#475569;stroke-width:1;"/></g><!--link model to ledger--><g class="link" data-entity-1="ent0003" data-entity-2="ent0009" data-link-type="dependency" data-source-line="32" id="lnk19"><path d="M144.59,206.82 C187.53,239.64 261.92,292.8 333,325.6 C391.15,352.44 453.5186,371.7074 510.5586,386.3574" fill="none" id="model-to-ledger" style="stroke:#475569;stroke-width:1;"/><polygon fill="#475569" points="516.37,387.85,508.648,381.7369,511.5272,386.6062,506.6579,389.4854,516.37,387.85" style="stroke:#475569;stroke-width:1;"/></g><!--link context to ledger--><g class="link" data-entity-1="ent0004" data-entity-2="ent0009" data-link-type="dependency" data-source-line="33" id="lnk20"><path d="M349.47,206.72 C340.78,238.97 332.77,291.12 358,325.6 C394.31,375.23 452.7168,396.7229 510.4468,406.6529" fill="none" id="context-to-ledger" style="stroke:#475569;stroke-width:1;"/><polygon fill="#475569" points="516.36,407.67,508.1683,402.2022,511.4324,406.8224,506.8122,410.0864,516.36,407.67" style="stroke:#475569;stroke-width:1;"/></g><!--link tools to ledger--><g class="link" data-entity-1="ent0005" data-entity-2="ent0009" data-link-type="dependency" data-source-line="34" id="lnk21"><path d="M656.93,206.68 C675.76,221.97 695.85,242.53 706,266.4 C716.3,290.61 714.55,300.72 706,325.6 C698.27,348.1 686.2935,364.8463 671.6235,380.8563" fill="none" id="tools-to-ledger" style="stroke:#475569;stroke-width:1;"/><polygon fill="#475569" points="667.57,385.28,676.5994,381.3467,670.9479,381.5936,670.7011,375.9421,667.57,385.28" style="stroke:#475569;stroke-width:1;"/></g><!--link infra to ledger--><g class="link" data-entity-1="ent0006" data-entity-2="ent0009" data-link-type="dependency" data-source-line="35" id="lnk22"><path d="M817.76,206.83 C799.77,237.8 768.93,287.53 736,325.6 C717.14,347.41 697.6949,365.1936 678.0249,381.6236" fill="none" id="infra-to-ledger" style="stroke:#475569;stroke-width:1;"/><polygon fill="#475569" points="673.42,385.47,682.8916,382.7703,677.2574,382.2647,677.7631,376.6305,673.42,385.47" style="stroke:#475569;stroke-width:1;"/></g><!--link human to ledger--><g class="link" data-entity-1="ent0007" data-entity-2="ent0009" data-link-type="dependency" data-source-line="36" id="lnk23"><path d="M885.43,325.97 C834.66,344 775.2438,365.1015 724.4338,383.1515" fill="none" id="human-to-ledger" style="stroke:#475569;stroke-width:1;"/><polygon fill="#475569" points="718.78,385.16,728.5998,385.9165,723.4915,383.4862,725.9218,378.378,718.78,385.16" style="stroke:#475569;stroke-width:1;"/></g><!--link waste to ledger--><g class="link" data-entity-1="ent0008" data-entity-2="ent0009" data-link-type="dependency" data-source-line="37" id="lnk24"><path d="M557.96,325.97 C574.11,344 590.8065,362.641 606.9765,380.691" fill="none" id="waste-to-ledger" style="stroke:#475569;stroke-width:1;"/><polygon fill="#475569" points="610.98,385.16,607.954,375.7875,607.6437,381.4358,601.9954,381.1255,610.98,385.16" style="stroke:#475569;stroke-width:1;"/></g><?plantuml-src RPBVJnD14CVVxw_OjCy6HH1yCQbdBp4nXiY3BtrPUakvzBhRx6rJep41GmLfg9ZAZoO4gBQH47i4mo-hr3_6xjxnNxYtTx6ByMbdPcS-yzsPPGvp4SWK46Q0Tqx2qsvuSSm7os9rG-n-5GSV3CChEhWCAIo1EPWl5YYfODiaBg6Wkk0mfDtRQ1vMN6OHp9x24WAf6GSNB8WBODPC_Jzlrdc9m9q9xT9RW3Qfoa8m3rrFnwlEUK8nec1QYsSe9TLOKNfYQdBotdsz2EMPL20V-Se0u26XDg8tSsNqdtUbhMahOvd6QyCObQUULN0AG0_G2WRfx6rhtChgr-AmpVVg8CCOAfMPbyFXeCbhtT-BIv6nqfT6yBF9UplI45izSROapex2q--AMI8sSc_GFYy6fv-6butXvThmiYwsLd8ObUQGRSl9I0955EAYDAvNrdbd7J1IHB6yl9mgUi5q6B_eyjg5X8blhS0_oU7CpED8nTdxyCigRnr66lrsu6zB8_u4eha-lDfLF4Q8w-cqeFUE3sgInlVxGNinz0TYwqe-zzUUQ4JFlTxPvwiHAbWx5nBOs-5l3XNAmVCKwgXXlo-rnNyjXuEs7_gTgB1_SFsn5IbiT0E_BOrXlousQxop76oyLQY5IWdADLXPwwuvfICjwBWLYi1pw36KmsBx8FZH57kx02QB0MCWdbay5UdomL7GE9P6U5uJs-V2hmURBTMb6a6YBjdnxBZUnIGU0q-GNK0qXwCFSUi1aAdbw4mQZP6ot15pIBmMLoM3z2FJChDJycD5HJ8xsNpY_LrUuYV3JxnaVecdHc2eUkKhiKP2q2AAeVcAelaZGgpn1Y89ZHX9O0H90l52j40ykr7W3m00?></g></svg>