<?plantuml 1.2026.2?><svg xmlns="http://www.w3.org/2000/svg" xmlns:xlink="http://www.w3.org/1999/xlink" contentStyleType="text/css" data-diagram-type="DESCRIPTION" height="470px" preserveAspectRatio="none" style="width:1042px;height:470px;background:#FFFFFF;" version="1.1" viewBox="0 0 1042 470" width="1042px" zoomAndPan="magnify"><title>Context &#26159;&#26377;&#20248;&#20808;&#32423;&#30340;&#20449;&#24687;&#39044;&#31639;</title><defs/><g><g class="title" data-source-line="1"><text fill="#000000" font-family="'PingFang SC'" font-size="14" font-weight="bold" lengthAdjust="spacing" textLength="197.036" x="415.978" y="24.84">Context &#26159;&#26377;&#20248;&#20808;&#32423;&#30340;&#20449;&#24687;&#39044;&#31639;</text></g><!--entity budget--><g class="entity" data-qualified-name="budget" data-source-line="14" id="ent0002"><rect fill="#E0F2FE" height="59.2" rx="4" ry="4" style="stroke:#475569;stroke-width:0.5;" width="297.802" x="328.39" y="47.6"/><text fill="#000000" font-family="'PingFang SC'" font-size="14" lengthAdjust="spacing" textLength="42" x="338.39" y="72.44">&#24635;&#39044;&#31639;</text><text fill="#000000" font-family="'PingFang SC'" font-size="14" lengthAdjust="spacing" textLength="277.802" x="338.39" y="92.04">model limit - output reserve - tool reserve</text></g><!--entity p0--><g class="entity" data-qualified-name="p0" data-source-line="15" id="ent0003"><rect fill="#FEE2E2" height="59.2" rx="4" ry="4" style="stroke:#475569;stroke-width:0.5;" width="284.586" x="7" y="166.8"/><text fill="#000000" font-family="'PingFang SC'" font-size="14" lengthAdjust="spacing" textLength="64.05" x="17" y="191.64">P0 &#19981;&#21487;&#20002;</text><text fill="#000000" font-family="'PingFang SC'" font-size="14" lengthAdjust="spacing" textLength="264.586" x="17" y="211.24">system policy / user goal / current state</text></g><!--entity p1--><g class="entity" data-qualified-name="p1" data-source-line="16" id="ent0004"><rect fill="#FEF3C7" height="59.2" rx="4" ry="4" style="stroke:#475569;stroke-width:0.5;" width="301.9741" x="326.31" y="166.8"/><text fill="#000000" font-family="'PingFang SC'" font-size="14" lengthAdjust="spacing" textLength="103.264" x="336.31" y="191.64">P1 &#23436;&#25104;&#20219;&#21153;&#25152;&#38656;</text><text fill="#000000" font-family="'PingFang SC'" font-size="14" lengthAdjust="spacing" textLength="281.9741" x="336.31" y="211.24">tool schemas / core evidence / constraints</text></g><!--entity p2--><g class="entity" data-qualified-name="p2" data-source-line="17" id="ent0005"><rect fill="#F8FAFC" height="59.2" rx="4" ry="4" style="stroke:#475569;stroke-width:0.5;" width="373.402" x="663.59" y="166.8"/><text fill="#000000" font-family="'PingFang SC'" font-size="14" lengthAdjust="spacing" textLength="50.05" x="673.59" y="191.64">P2 &#36741;&#21161;</text><text fill="#000000" font-family="'PingFang SC'" font-size="14" lengthAdjust="spacing" textLength="353.402" x="673.59" y="211.24">conversation history / examples / secondary evidence</text></g><!--entity compact--><g class="entity" data-qualified-name="compact" data-source-line="18" id="ent0006"><rect fill="#F8FAFC" height="59.2" rx="4" ry="4" style="stroke:#475569;stroke-width:0.5;" width="280.036" x="337.27" y="286"/><text fill="#000000" font-family="'PingFang SC'" font-size="14" lengthAdjust="spacing" textLength="70" x="347.27" y="310.84">&#21387;&#32553;&#19982;&#36873;&#25321;</text><text fill="#000000" font-family="'PingFang SC'" font-size="14" lengthAdjust="spacing" textLength="260.036" x="347.27" y="330.44">&#32467;&#26500;&#21270; state / claim-evidence / dedupe</text></g><!--entity manifest--><g class="entity" data-qualified-name="manifest" data-source-line="19" id="ent0007"><rect fill="#DCFCE7" height="59.2" rx="4" ry="4" style="stroke:#475569;stroke-width:0.5;" width="357.232" x="298.68" y="405.2"/><text fill="#000000" font-family="'PingFang SC'" font-size="14" lengthAdjust="spacing" textLength="112.336" x="308.68" y="430.04">Context Manifest</text><text fill="#000000" font-family="'PingFang SC'" font-size="14" lengthAdjust="spacing" textLength="337.232" x="308.68" y="449.64">selected / dropped / summarized / source versions</text></g><g class="entity" data-qualified-name="GMN15" data-source-line="30" id="ent0016"><path d="M652.79,295 L652.79,311.6 L617.58,315.6 L652.79,319.6 L652.79,336.2 A4,4 0 0 0 656.79,340.2 L907.79,340.2 A4,4 0 0 0 911.79,336.2 L911.79,301 L901.79,291 L656.79,291 A4,4 0 0 0 652.79,295" fill="#FEFFDD" style="stroke:#181818;stroke-width:0.5;"/><path d="M901.79,291 L901.79,299 A2,2 0 0 0 903.79,301 L911.79,301 L901.79,291" fill="#FEFFDD" style="stroke:#181818;stroke-width:0.5;"/><text fill="#000000" font-family="'PingFang SC'" font-size="14" lengthAdjust="spacing" textLength="154" x="658.79" y="310.84">&#21387;&#32553;&#21487;&#20197;&#21024;&#38500;&#34920;&#36798;&#37325;&#22797;&#65292;</text><text fill="#000000" font-family="'PingFang SC'" font-size="14" lengthAdjust="spacing" textLength="238" x="658.79" y="330.44">&#19981;&#33021;&#21024;&#38500;&#26435;&#38480;&#12289;&#26410;&#23436;&#25104;&#29366;&#24577;&#21644;&#35777;&#25454;&#38480;&#23450;</text></g><!--link budget to p0--><g class="link" data-entity-1="ent0002" data-entity-2="ent0003" data-link-type="dependency" data-source-line="21" id="lnk8"><path d="M396.21,107.17 C345.75,125.2 286.7299,146.2906 236.2299,164.3406" fill="none" id="budget-to-p0" style="stroke:#475569;stroke-width:1;"/><polygon fill="#475569" points="230.58,166.36,240.4012,167.0975,235.2883,164.6771,237.7086,159.5642,230.58,166.36" style="stroke:#475569;stroke-width:1;"/></g><!--link budget to p1--><g class="link" data-entity-1="ent0002" data-entity-2="ent0004" data-link-type="dependency" data-source-line="22" id="lnk9"><path d="M477.29,107.17 C477.29,125.2 477.29,142.31 477.29,160.36" fill="none" id="budget-to-p1" style="stroke:#475569;stroke-width:1;"/><polygon fill="#475569" points="477.29,166.36,481.29,157.36,477.29,161.36,473.29,157.36,477.29,166.36" style="stroke:#475569;stroke-width:1;"/></g><!--link budget to p2--><g class="link" data-entity-1="ent0002" data-entity-2="ent0005" data-link-type="dependency" data-source-line="23" id="lnk10"><path d="M569.5,107.17 C626.88,125.2 694.7061,146.511 752.1361,164.561" fill="none" id="budget-to-p2" style="stroke:#475569;stroke-width:1;"/><polygon fill="#475569" points="757.86,166.36,750.4734,159.8455,753.09,164.8608,748.0747,167.4774,757.86,166.36" style="stroke:#475569;stroke-width:1;"/></g><!--link p0 to compact--><g class="link" data-entity-1="ent0003" data-entity-2="ent0006" data-link-type="dependency" data-source-line="24" id="lnk11"><path d="M230.37,226.37 C280.83,244.4 339.8601,265.4906 390.3601,283.5406" fill="none" id="p0-to-compact" style="stroke:#475569;stroke-width:1;"/><polygon fill="#475569" points="396.01,285.56,388.8814,278.7642,391.3017,283.8771,386.1888,286.2975,396.01,285.56" style="stroke:#475569;stroke-width:1;"/></g><!--link p1 to compact--><g class="link" data-entity-1="ent0004" data-entity-2="ent0006" data-link-type="dependency" data-source-line="25" id="lnk12"><path d="M477.29,226.37 C477.29,244.4 477.29,261.51 477.29,279.56" fill="none" id="p1-to-compact" style="stroke:#475569;stroke-width:1;"/><polygon fill="#475569" points="477.29,285.56,481.29,276.56,477.29,280.56,473.29,276.56,477.29,285.56" style="stroke:#475569;stroke-width:1;"/></g><!--link p2 to compact--><g class="link" data-entity-1="ent0005" data-entity-2="ent0006" data-link-type="dependency" data-source-line="26" id="lnk13"><path d="M758.09,226.37 C700.71,244.4 632.8839,265.711 575.4539,283.761" fill="none" id="p2-to-compact" style="stroke:#475569;stroke-width:1;"/><polygon fill="#475569" points="569.73,285.56,579.5153,286.6774,574.5,284.0608,577.1166,279.0455,569.73,285.56" style="stroke:#475569;stroke-width:1;"/></g><!--link compact to manifest--><g class="link" data-entity-1="ent0006" data-entity-2="ent0007" data-link-type="dependency" data-source-line="27" id="lnk14"><path d="M477.29,345.57 C477.29,363.6 477.29,380.71 477.29,398.76" fill="none" id="compact-to-manifest" style="stroke:#475569;stroke-width:1;"/><polygon fill="#475569" points="477.29,404.76,481.29,395.76,477.29,399.76,473.29,395.76,477.29,404.76" style="stroke:#475569;stroke-width:1;"/></g><?plantuml-src RP9BRzD04CVl_XIZv1pHX9QM2r8nyGrKgTTSjlOaMTNUjNRNVO2G4hKLVIIb0WdQAY1Q5K4v93TKaL8-3B6JdFWAhEC6RCJ9Ew_V_6SyYYeNmUHCuOQ2wBWNTVO6ryVXpkxmswVXwVRWnrdKx8tFjuVTjuOXLodpYI0Uh11xjIPum1oJkrp0UfqgJCKTh9B0LPO6Fo4UGcw9iff5M0sMpTp_yvRfKuJYR2eewyJXwxeGgiILQVoaiyq5Gm4BAV-Y47mzKPIVdP-RktS_NOIsqWhqlCyCW8TSE2YokThxprnvQy5Qj4pZkM7yBSz5ZNwoaWhpk8CkkDIZ2Wh00-K7IdUIADPGEnJdxjJC0P6m4ZWrL90lprWbgvo6Bit0uAeTlkmDhiuhJ6vAXHxutANs9jo1G2EWnechttOW1385KX6LKFqPhRHSBfLB6M8HmcuhsZqQzFlX_bcqrnXt6XKsqIJjEdgwKjEuGC0rwY2pSM8pgGIXJCc4NOpPrbrpFiCkmUXc9zo_h31Ti8P24aKvWpgLYejOCMuGptSnRY5HvpX4kwTz4d96RNXuCBo-75mTZXjxqO7c3lkle_VROUjDCcWipINKAwIqEkW4VWApkUSJMwM9qxD-J1YjebHwg-ZgC3fngU2-Ftd9mFE8qDStCNWWD3eUI8-JRC2xhOVy8zCoo_E6SViN2uK7UlKPgvYnIeR-C_5hgaulCsEMCkRjT-ARDZKCnlNmWjRg2dZrJov0ih3uOFeVmzqFuvEBqTddqStD-4Kxl6Z_kcxf77rHewtlIJHwjpK-EVhPQ4QTBybT3FU_Herc-AerwZMZTbT7m-wfWSo1kETl?></g></svg>