<?plantuml 1.2026.2?><svg xmlns="http://www.w3.org/2000/svg" xmlns:xlink="http://www.w3.org/1999/xlink" contentStyleType="text/css" data-diagram-type="DESCRIPTION" height="753px" preserveAspectRatio="none" style="width:603px;height:753px;background:#FFFFFF;" version="1.1" viewBox="0 0 603 753" width="603px" zoomAndPan="magnify"><title>&#25968;&#25454;&#24179;&#21488;&#25104;&#26412;&#24402;&#22240;&#38142;&#36335;</title><defs/><g><g class="title" data-source-line="1"><text fill="#000000" font-family="'PingFang SC'" font-size="14" font-weight="bold" lengthAdjust="spacing" textLength="140" x="224.712" y="24.84">&#25968;&#25454;&#24179;&#21488;&#25104;&#26412;&#24402;&#22240;&#38142;&#36335;</text></g><!--entity identity--><g class="entity" data-qualified-name="identity" data-source-line="14" id="ent0002"><rect fill="#E0F2FE" height="59.2" rx="4" ry="4" style="stroke:#475569;stroke-width:0.5;" width="295.786" x="41.82" y="47.6"/><text fill="#000000" font-family="'PingFang SC'" font-size="14" lengthAdjust="spacing" textLength="56" x="51.82" y="72.44">&#19994;&#21153;&#36523;&#20221;</text><text fill="#000000" font-family="'PingFang SC'" font-size="14" lengthAdjust="spacing" textLength="275.786" x="51.82" y="92.04">project / owner / job / instance / attempt</text></g><!--entity usage--><g class="entity" data-qualified-name="usage" data-source-line="15" id="ent0003"><rect fill="#F8FAFC" height="59.2" rx="4" ry="4" style="stroke:#475569;stroke-width:0.5;" width="365.422" x="7" y="187.8"/><text fill="#000000" font-family="'PingFang SC'" font-size="14" lengthAdjust="spacing" textLength="56" x="17" y="212.64">&#36164;&#28304;&#20107;&#23454;</text><text fill="#000000" font-family="'PingFang SC'" font-size="14" lengthAdjust="spacing" textLength="345.422" x="17" y="232.24">CPU-seconds / memory-seconds / bytes / requests</text></g><!--entity price--><g class="entity" data-qualified-name="price" data-source-line="16" id="ent0004"><rect fill="#FEF3C7" height="59.2" rx="4" ry="4" style="stroke:#475569;stroke-width:0.5;" width="230" x="74.71" y="328"/><text fill="#000000" font-family="'PingFang SC'" font-size="14" lengthAdjust="spacing" textLength="56" x="84.71" y="352.84">&#20215;&#26684;&#24555;&#29031;</text><text fill="#000000" font-family="'PingFang SC'" font-size="14" lengthAdjust="spacing" textLength="210" x="84.71" y="372.44">&#33410;&#28857;&#12289;&#23384;&#20648;&#12289;&#32593;&#32476;&#12289;&#22806;&#37096;&#26381;&#21153;&#21333;&#20215;</text></g><!--entity ledger--><g class="entity" data-qualified-name="ledger" data-source-line="17" id="ent0005"><rect fill="#DCFCE7" height="59.2" rx="4" ry="4" style="stroke:#475569;stroke-width:0.5;" width="237.798" x="70.81" y="448.2"/><text fill="#000000" font-family="'PingFang SC'" font-size="14" lengthAdjust="spacing" textLength="56" x="80.81" y="473.04">&#24402;&#22240;&#36134;&#26412;</text><text fill="#000000" font-family="'PingFang SC'" font-size="14" lengthAdjust="spacing" textLength="217.798" x="80.81" y="492.64">usage &#215; price + shared allocation</text></g><!--entity views--><g class="entity" data-qualified-name="views" data-source-line="18" id="ent0006"><rect fill="#DCFCE7" height="59.2" rx="4" ry="4" style="stroke:#475569;stroke-width:0.5;" width="160" x="109.71" y="568.4"/><text fill="#000000" font-family="'PingFang SC'" font-size="14" lengthAdjust="spacing" textLength="56" x="119.71" y="593.24">&#19977;&#20010;&#35270;&#22270;</text><text fill="#000000" font-family="'PingFang SC'" font-size="14" lengthAdjust="spacing" textLength="140" x="119.71" y="612.84">&#35745;&#36153;&#12289;&#25928;&#29575;&#12289;&#20248;&#21270;&#26426;&#20250;</text></g><!--entity action--><g class="entity" data-qualified-name="action" data-source-line="19" id="ent0007"><rect fill="#FEE2E2" height="59.2" rx="4" ry="4" style="stroke:#475569;stroke-width:0.5;" width="244.406" x="67.51" y="688.6"/><text fill="#000000" font-family="'PingFang SC'" font-size="14" lengthAdjust="spacing" textLength="56" x="77.51" y="713.44">&#22238;&#21040;&#21160;&#20316;</text><text fill="#000000" font-family="'PingFang SC'" font-size="14" lengthAdjust="spacing" textLength="224.406" x="77.51" y="733.04">right-size / &#38480;&#24182;&#21457; / &#25913;&#27169;&#22411; / &#19979;&#32447;</text></g><g class="entity" data-qualified-name="GMN13" data-source-line="28" id="ent0014"><path d="M406.99,196.8 L406.99,213.4 L372.83,217.4 L406.99,221.4 L406.99,238 A4,4 0 0 0 410.99,242 L592.424,242 A4,4 0 0 0 596.424,238 L596.424,202.8 L586.424,192.8 L410.99,192.8 A4,4 0 0 0 406.99,196.8" fill="#FEFFDD" style="stroke:#181818;stroke-width:0.5;"/><path d="M586.424,192.8 L586.424,200.8 A2,2 0 0 0 588.424,202.8 L596.424,202.8 L586.424,192.8" fill="#FEFFDD" style="stroke:#181818;stroke-width:0.5;"/><text fill="#000000" font-family="'PingFang SC'" font-size="14" lengthAdjust="spacing" textLength="168.434" x="412.99" y="212.64">allocated &#19982; actual &#20998;&#24320;&#65307;</text><text fill="#000000" font-family="'PingFang SC'" font-size="14" lengthAdjust="spacing" textLength="144.004" x="412.99" y="232.24">&#22833;&#36133; attempt &#20063;&#35201;&#35745;&#20837;</text></g><g class="entity" data-qualified-name="GMN16" data-source-line="33" id="ent0017"><path d="M305.21,577.4 L305.21,594 L270.2,598 L305.21,602 L305.21,618.6 A4,4 0 0 0 309.21,622.6 L476.21,622.6 A4,4 0 0 0 480.21,618.6 L480.21,583.4 L470.21,573.4 L309.21,573.4 A4,4 0 0 0 305.21,577.4" fill="#FEFFDD" style="stroke:#181818;stroke-width:0.5;"/><path d="M470.21,573.4 L470.21,581.4 A2,2 0 0 0 472.21,583.4 L480.21,583.4 L470.21,573.4" fill="#FEFFDD" style="stroke:#181818;stroke-width:0.5;"/><text fill="#000000" font-family="'PingFang SC'" font-size="14" lengthAdjust="spacing" textLength="140" x="311.21" y="593.24">&#25104;&#26412;&#39640;&#19981;&#31561;&#20110;&#28010;&#36153;&#39640;&#65292;</text><text fill="#000000" font-family="'PingFang SC'" font-size="14" lengthAdjust="spacing" textLength="154" x="311.21" y="612.84">&#25104;&#26412;&#20302;&#20063;&#19981;&#31561;&#20110;&#20219;&#21153;&#26377;&#25928;</text></g><!--link identity to usage--><g class="link" data-entity-1="ent0002" data-entity-2="ent0003" data-link-type="dependency" data-source-line="21" id="lnk8"><path d="M189.71,107.17 C189.71,130.76 189.71,157.89 189.71,181.47" fill="none" id="identity-to-usage" style="stroke:#475569;stroke-width:1;"/><polygon fill="#475569" points="189.71,187.47,193.71,178.47,189.71,182.47,185.71,178.47,189.71,187.47" style="stroke:#475569;stroke-width:1;"/><text fill="#000000" font-family="'PingFang SC'" font-size="14" lengthAdjust="spacing" textLength="84" x="190.71" y="152.64">&#20851;&#32852;&#25191;&#34892;&#36164;&#28304;</text></g><!--link usage to price--><g class="link" data-entity-1="ent0003" data-entity-2="ent0004" data-link-type="dependency" data-source-line="22" id="lnk9"><path d="M189.71,247.37 C189.71,270.96 189.71,298.09 189.71,321.67" fill="none" id="usage-to-price" style="stroke:#475569;stroke-width:1;"/><polygon fill="#475569" points="189.71,327.67,193.71,318.67,189.71,322.67,185.71,318.67,189.71,327.67" style="stroke:#475569;stroke-width:1;"/><text fill="#000000" font-family="'PingFang SC'" font-size="14" lengthAdjust="spacing" textLength="126" x="190.71" y="292.84">&#25353;&#36816;&#34892;&#26102;&#27573;&#21305;&#37197;&#21333;&#20215;</text></g><!--link price to ledger--><g class="link" data-entity-1="ent0004" data-entity-2="ent0005" data-link-type="dependency" data-source-line="23" id="lnk10"><path d="M189.71,387.52 C189.71,405.83 189.71,423.44 189.71,441.77" fill="none" id="price-to-ledger" style="stroke:#475569;stroke-width:1;"/><polygon fill="#475569" points="189.71,447.77,193.71,438.77,189.71,442.77,185.71,438.77,189.71,447.77" style="stroke:#475569;stroke-width:1;"/></g><!--link ledger to views--><g class="link" data-entity-1="ent0005" data-entity-2="ent0006" data-link-type="dependency" data-source-line="24" id="lnk11"><path d="M189.71,507.72 C189.71,526.03 189.71,543.64 189.71,561.97" fill="none" id="ledger-to-views" style="stroke:#475569;stroke-width:1;"/><polygon fill="#475569" points="189.71,567.97,193.71,558.97,189.71,562.97,185.71,558.97,189.71,567.97" style="stroke:#475569;stroke-width:1;"/></g><!--link views to action--><g class="link" data-entity-1="ent0006" data-entity-2="ent0007" data-link-type="dependency" data-source-line="25" id="lnk12"><path d="M189.71,627.91 C189.71,646.23 189.71,663.84 189.71,682.17" fill="none" id="views-to-action" style="stroke:#475569;stroke-width:1;"/><polygon fill="#475569" points="189.71,688.17,193.71,679.17,189.71,683.17,185.71,679.17,189.71,688.17" style="stroke:#475569;stroke-width:1;"/></g><?plantuml-src RLJBJjj05DtxAqR9iefeAHJAeX9DusM5XBhBnjX3C3WpgJrfHAjAG1kQG192owiaeaJY4K59gNZb2Oj-IZqJPyKlT6n3QX0R-_hEkMVEFVVAH2KQ16prc6Khj7P2buvPAi-AFsdhAoriTxvTMXU_1C6OKb5CqgKe69FagOYEuqW9OWth836X4kWvL-2u5DU8Y15vBKKXy8seA29AA096Wxw7SQFgUmYUz7aEZGb9mGbU2CObpV3IEpVBM4TG1uEU_B2kuuIhoDytqD__xBct2Cg4A-1zVX00U8br1UftiJnxho-_E2WEYq7Xeo3yB_UPrKswKBBgXsQZ5KOn7K_oCz03SC8Mr0CcyHX_giZW1JBaeKG8ZCQ83qW6K1M8Y4gcWJ_qMEmLGrvYw-mpg-VD-YAjR8LHSEHDm80oHeh1EQ8mYlLfJs9ica3xhSEtSMWGms6F6r84tj7Qk63RJNfrs4xkXv6rCDUUg_sTcQL76tIkp8DsQxdTADgPdRNEfp8hPdbhDBlAwnp2cAxo5lnYI7mQ7F0IkwjXdUxnDGaZvrxmP_q6_yWUdWuL86aQbYMYOkImQL29S8lyhu9YC3HmrzEqMJsmzkTfuPBhh9IiKridMqsrSrzuO3OtQ6QD5UjcSzEXUgV2XF4G4oriqTGnNIYRhM8OwMfaWWGCUxbwGETxdjREwT8oZzbAZPLBT6kHnsPriLs_ScWbsHPhDnpg3VKAGdTSWS0Brrqm16Zon9fTOUbzgvHnPoQuHpR8TM08i4pQkifp15i_PvKpcgbrabdNMS75s6ZN4U7663lZD2QuxTdVhY91G9X0uBG3yFZDeC6jmTngivgpiN590pGrJvipryq21z2TtzRfxkqA0hFsmzgRvVxIvAu0aG9isllahWG0t9z0vt33h6RRHscpdcDd1tmmF7FTp7G1PYl7QRiOiz7WEyIAQJwyxXN_0000?></g></svg>