<?plantuml 1.2026.2?><svg xmlns="http://www.w3.org/2000/svg" xmlns:xlink="http://www.w3.org/1999/xlink" contentStyleType="text/css" data-diagram-type="SEQUENCE" height="861px" preserveAspectRatio="none" style="width:1014px;height:861px;background:#FFFFFF;" version="1.1" viewBox="0 0 1014 861" width="1014px" zoomAndPan="magnify"><title>Channel.push() &#30340;&#23454;&#38469;&#35843;&#29992;&#39034;&#24207;</title><defs/><g><text fill="#000000" font-family="'PingFang SC'" font-size="14" font-weight="bold" lengthAdjust="spacing" textLength="201.936" x="407.7244" y="29.84">Channel.push() &#30340;&#23454;&#38469;&#35843;&#29992;&#39034;&#24207;</text><g><title>Channel</title><rect fill="#FFFFFF" height="440" style="stroke:#181818;stroke-width:1;" width="10" x="298.555" y="118.6"/></g><g><title>Channel</title><rect fill="#FFFFFF" height="210" style="stroke:#181818;stroke-width:1;" width="10" x="298.555" y="593.6"/></g><g><title>MemoryChannel</title><rect fill="#FFFFFF" height="140" style="stroke:#181818;stroke-width:1;" width="10" x="578.7049" y="153.6"/></g><g><title>MemoryChannel</title><rect fill="#FFFFFF" height="140" style="stroke:#181818;stroke-width:1;" width="10" x="578.7049" y="628.6"/></g><rect fill="none" height="91" rx="4" ry="4" style="stroke:#000000;stroke-width:1.5;" width="433.355" x="510.5299" y="168.6"/><rect fill="none" height="168" rx="4" ry="4" style="stroke:#000000;stroke-width:1.5;" width="345.2825" x="248.4225" y="356.6"/><rect fill="none" height="77" rx="4" ry="4" style="stroke:#000000;stroke-width:1.5;" width="325.2825" x="258.4225" y="440.6"/><rect fill="none" height="91" rx="4" ry="4" style="stroke:#000000;stroke-width:1.5;" width="497.855" x="510.5299" y="643.6"/><g class="participant-lifeline" data-entity-uid="part1" data-qualified-name="reader" id="part1-lifeline"><g><title>ReaderRunner</title><rect fill="#000000" fill-opacity="0.00000" height="740" width="8" x="57.275" y="81.6"/><line style="stroke:#181818;stroke-width:0.5;stroke-dasharray:5,5;" x1="61" x2="61" y1="81.6" y2="821.6"/></g></g><g class="participant-lifeline" data-entity-uid="part2" data-qualified-name="channel" id="part2-lifeline"><g><title>Channel</title><rect fill="#000000" fill-opacity="0.00000" height="740" width="8" x="299.555" y="81.6"/><line style="stroke:#181818;stroke-width:0.5;stroke-dasharray:5,5;" x1="303.4225" x2="303.4225" y1="81.6" y2="821.6"/></g></g><g class="participant-lifeline" data-entity-uid="part3" data-qualified-name="memory" id="part3-lifeline"><g><title>MemoryChannel</title><rect fill="#000000" fill-opacity="0.00000" height="740" width="8" x="579.7049" y="81.6"/><line style="stroke:#181818;stroke-width:0.5;stroke-dasharray:5,5;" x1="583.5299" x2="583.5299" y1="81.6" y2="821.6"/></g></g><g class="participant-lifeline" data-entity-uid="part4" data-qualified-name="writer" id="part4-lifeline"><g><title>WriterRunner</title><rect fill="#000000" fill-opacity="0.00000" height="740" width="8" x="770.7999" y="81.6"/><line style="stroke:#181818;stroke-width:0.5;stroke-dasharray:5,5;" x1="774.0499" x2="774.0499" y1="81.6" y2="821.6"/></g></g><g class="participant participant-head" data-entity-uid="part1" data-qualified-name="reader" id="part1-head"><rect fill="#F8FAFC" height="35" rx="4" ry="4" style="stroke:#334155;stroke-width:0.5;" width="112.55" x="5" y="45.6"/><text fill="#0F172A" font-family="'PingFang SC'" font-size="15" lengthAdjust="spacing" textLength="98.55" x="12" y="68.5">ReaderRunner</text></g><g class="participant participant-tail" data-entity-uid="part1" data-qualified-name="reader" id="part1-tail"><rect fill="#F8FAFC" height="35" rx="4" ry="4" style="stroke:#334155;stroke-width:0.5;" width="112.55" x="5" y="820.6"/><text fill="#0F172A" font-family="'PingFang SC'" font-size="15" lengthAdjust="spacing" textLength="98.55" x="12" y="843.5">ReaderRunner</text></g><g class="participant participant-head" data-entity-uid="part2" data-qualified-name="channel" id="part2-head"><rect fill="#F8FAFC" height="35" rx="4" ry="4" style="stroke:#334155;stroke-width:0.5;" width="70.265" x="268.4225" y="45.6"/><text fill="#0F172A" font-family="'PingFang SC'" font-size="15" lengthAdjust="spacing" textLength="56.265" x="275.4225" y="68.5">Channel</text></g><g class="participant participant-tail" data-entity-uid="part2" data-qualified-name="channel" id="part2-tail"><rect fill="#F8FAFC" height="35" rx="4" ry="4" style="stroke:#334155;stroke-width:0.5;" width="70.265" x="268.4225" y="820.6"/><text fill="#0F172A" font-family="'PingFang SC'" font-size="15" lengthAdjust="spacing" textLength="56.265" x="275.4225" y="843.5">Channel</text></g><g class="participant participant-head" data-entity-uid="part3" data-qualified-name="memory" id="part3-head"><rect fill="#F8FAFC" height="35" rx="4" ry="4" style="stroke:#334155;stroke-width:0.5;" width="126.35" x="520.5299" y="45.6"/><text fill="#0F172A" font-family="'PingFang SC'" font-size="15" lengthAdjust="spacing" textLength="112.35" x="527.5299" y="68.5">MemoryChannel</text></g><g class="participant participant-tail" data-entity-uid="part3" data-qualified-name="memory" id="part3-tail"><rect fill="#F8FAFC" height="35" rx="4" ry="4" style="stroke:#334155;stroke-width:0.5;" width="126.35" x="520.5299" y="820.6"/><text fill="#0F172A" font-family="'PingFang SC'" font-size="15" lengthAdjust="spacing" textLength="112.35" x="527.5299" y="843.5">MemoryChannel</text></g><g class="participant participant-head" data-entity-uid="part4" data-qualified-name="writer" id="part4-head"><rect fill="#F8FAFC" height="35" rx="4" ry="4" style="stroke:#334155;stroke-width:0.5;" width="105.5" x="722.0499" y="45.6"/><text fill="#0F172A" font-family="'PingFang SC'" font-size="15" lengthAdjust="spacing" textLength="91.5" x="729.0499" y="68.5">WriterRunner</text></g><g class="participant participant-tail" data-entity-uid="part4" data-qualified-name="writer" id="part4-tail"><rect fill="#F8FAFC" height="35" rx="4" ry="4" style="stroke:#334155;stroke-width:0.5;" width="105.5" x="722.0499" y="820.6"/><text fill="#0F172A" font-family="'PingFang SC'" font-size="15" lengthAdjust="spacing" textLength="91.5" x="729.0499" y="843.5">WriterRunner</text></g><g><title>Channel</title><rect fill="#FFFFFF" height="440" style="stroke:#181818;stroke-width:1;" width="10" x="298.555" y="118.6"/></g><g><title>Channel</title><rect fill="#FFFFFF" height="210" style="stroke:#181818;stroke-width:1;" width="10" x="298.555" y="593.6"/></g><g><title>MemoryChannel</title><rect fill="#FFFFFF" height="140" style="stroke:#181818;stroke-width:1;" width="10" x="578.7049" y="153.6"/></g><g><title>MemoryChannel</title><rect fill="#FFFFFF" height="140" style="stroke:#181818;stroke-width:1;" width="10" x="578.7049" y="628.6"/></g><g class="message" data-entity-1="part1" data-entity-2="part2" id="msg1"><polygon fill="#475569" points="286.555,114.6,296.555,118.6,286.555,122.6,290.555,118.6" style="stroke:#475569;stroke-width:1;"/><line style="stroke:#475569;stroke-width:1;" x1="61.275" x2="292.555" y1="118.6" y2="118.6"/><text fill="#000000" font-family="'PingFang SC'" font-size="15" lengthAdjust="spacing" textLength="218.28" x="68.275" y="111.5">push(record) / pushAll(records)</text></g><g class="message" data-entity-1="part2" data-entity-2="part3" id="msg2"><polygon fill="#475569" points="566.7049,149.6,576.7049,153.6,566.7049,157.6,570.7049,153.6" style="stroke:#475569;stroke-width:1;"/><line style="stroke:#475569;stroke-width:1;" x1="308.555" x2="572.7049" y1="153.6" y2="153.6"/><text fill="#000000" font-family="'PingFang SC'" font-size="15" lengthAdjust="spacing" textLength="157.425" x="315.555" y="146.5">doPush() / doPushAll()</text></g><path d="M514.5299,168.6 L573.3499,168.6 L573.3499,181.6 L563.3499,191.6 L510.5299,191.6 L510.5299,172.6 A4,4 0 0 1 514.5299,168.6" fill="#EEEEEE" style="stroke:#000000;stroke-width:1.5;"/><rect fill="none" height="91" rx="4" ry="4" style="stroke:#000000;stroke-width:1.5;" width="433.355" x="510.5299" y="168.6"/><text fill="#000000" font-family="'PingFang SC'" font-size="15" font-weight="bold" lengthAdjust="spacing" textLength="17.82" x="525.5299" y="185.5">alt</text><text fill="#000000" font-family="'PingFang SC'" font-size="15" font-weight="bold" lengthAdjust="spacing" textLength="198.87" x="588.3499" y="186.5">[&#38431;&#21015;&#28385;&#25110;&#36229;&#36807; byteCapacity]</text><g class="message" data-entity-1="part3" data-entity-2="part3" id="msg3"><line style="stroke:#475569;stroke-width:1;" x1="588.7049" x2="630.7049" y1="231.6" y2="231.6"/><line style="stroke:#475569;stroke-width:1;" x1="630.7049" x2="630.7049" y1="231.6" y2="244.6"/><line style="stroke:#475569;stroke-width:1;" x1="589.7049" x2="630.7049" y1="244.6" y2="244.6"/><polygon fill="#475569" points="599.7049,240.6,589.7049,244.6,599.7049,248.6,595.7049,244.6" style="stroke:#475569;stroke-width:1;"/><text fill="#000000" font-family="'PingFang SC'" font-size="15" lengthAdjust="spacing" textLength="99.645" x="595.7049" y="224.5">await(200 ms)</text></g><path d="M716.645,206.6 L716.645,250.6 A4,4 0 0 0 720.645,254.6 L918.645,254.6 A4,4 0 0 0 922.645,250.6 L922.645,212.6 L912.645,202.6 L720.645,202.6 A4,4 0 0 0 716.645,206.6" fill="#F8FAFC" style="stroke:#94A3B8;stroke-width:0.5;"/><path d="M912.645,202.6 L912.645,210.6 A2,2 0 0 0 914.645,212.6 L922.645,212.6 L912.645,202.6" fill="#F8FAFC" style="stroke:#94A3B8;stroke-width:0.5;"/><text fill="#000000" font-family="'PingFang SC'" font-size="15" lengthAdjust="spacing" textLength="112.38" x="722.645" y="223.5">&#31561; Writer &#33150;&#20301;&#32622;</text><text fill="#000000" font-family="'PingFang SC'" font-size="15" lengthAdjust="spacing" textLength="185.535" x="722.645" y="244.5">&#26102;&#38388;&#32047;&#35745;&#21040; waitWriterTime</text><g class="message" data-entity-1="part3" data-entity-2="part2" id="msg5"><polygon fill="#475569" points="319.555,289.6,309.555,293.6,319.555,297.6,315.555,293.6" style="stroke:#475569;stroke-width:1;"/><line style="stroke:#475569;stroke-width:1;stroke-dasharray:2,2;" x1="313.555" x2="582.7049" y1="293.6" y2="293.6"/><text fill="#000000" font-family="'PingFang SC'" font-size="15" lengthAdjust="spacing" textLength="60" x="325.555" y="286.5">&#20837;&#38431;&#23436;&#25104;</text></g><g class="message" data-entity-1="part2" data-entity-2="part2" id="msg6"><line style="stroke:#475569;stroke-width:1;" x1="308.555" x2="350.555" y1="328.6" y2="328.6"/><line style="stroke:#475569;stroke-width:1;" x1="350.555" x2="350.555" y1="328.6" y2="341.6"/><line style="stroke:#475569;stroke-width:1;" x1="309.555" x2="350.555" y1="341.6" y2="341.6"/><polygon fill="#475569" points="319.555,337.6,309.555,341.6,319.555,345.6,315.555,341.6" style="stroke:#475569;stroke-width:1;"/><text fill="#000000" font-family="'PingFang SC'" font-size="15" lengthAdjust="spacing" textLength="225.2099" x="315.555" y="321.5">statPush(recordCount, byteSize)</text></g><path d="M252.4225,356.6 L311.2425,356.6 L311.2425,369.6 L301.2425,379.6 L248.4225,379.6 L248.4225,360.6 A4,4 0 0 1 252.4225,356.6" fill="#EEEEEE" style="stroke:#000000;stroke-width:1.5;"/><rect fill="none" height="168" rx="4" ry="4" style="stroke:#000000;stroke-width:1.5;" width="345.2825" x="248.4225" y="356.6"/><text fill="#000000" font-family="'PingFang SC'" font-size="15" font-weight="bold" lengthAdjust="spacing" textLength="17.82" x="263.4225" y="373.5">alt</text><text fill="#000000" font-family="'PingFang SC'" font-size="15" font-weight="bold" lengthAdjust="spacing" textLength="225.27" x="326.2425" y="374.5">[interval &gt;= flowControlInterval]</text><g class="message" data-entity-1="part2" data-entity-2="part2" id="msg7"><line style="stroke:#475569;stroke-width:1;" x1="308.555" x2="350.555" y1="412.6" y2="412.6"/><line style="stroke:#475569;stroke-width:1;" x1="350.555" x2="350.555" y1="412.6" y2="425.6"/><line style="stroke:#475569;stroke-width:1;" x1="309.555" x2="350.555" y1="425.6" y2="425.6"/><polygon fill="#475569" points="319.555,421.6,309.555,425.6,319.555,429.6,315.555,425.6" style="stroke:#475569;stroke-width:1;"/><text fill="#000000" font-family="'PingFang SC'" font-size="15" lengthAdjust="spacing" textLength="214.845" x="315.555" y="405.5">&#35745;&#31639; byteSpeed / recordSpeed</text></g><path d="M262.4225,440.6 L321.2425,440.6 L321.2425,453.6 L311.2425,463.6 L258.4225,463.6 L258.4225,444.6 A4,4 0 0 1 262.4225,440.6" fill="#EEEEEE" style="stroke:#000000;stroke-width:1.5;"/><rect fill="none" height="77" rx="4" ry="4" style="stroke:#000000;stroke-width:1.5;" width="325.2825" x="258.4225" y="440.6"/><text fill="#000000" font-family="'PingFang SC'" font-size="15" font-weight="bold" lengthAdjust="spacing" textLength="17.82" x="273.4225" y="457.5">alt</text><text fill="#000000" font-family="'PingFang SC'" font-size="15" font-weight="bold" lengthAdjust="spacing" textLength="129.99" x="336.2425" y="458.5">[&#24403;&#21069;&#36895;&#24230;&#36229;&#36807;&#38480;&#21046;]</text><g class="message" data-entity-1="part2" data-entity-2="part2" id="msg8"><line style="stroke:#475569;stroke-width:1;" x1="308.555" x2="350.555" y1="496.6" y2="496.6"/><line style="stroke:#475569;stroke-width:1;" x1="350.555" x2="350.555" y1="496.6" y2="509.6"/><line style="stroke:#475569;stroke-width:1;" x1="309.555" x2="350.555" y1="509.6" y2="509.6"/><polygon fill="#475569" points="319.555,505.6,309.555,509.6,319.555,513.6,315.555,509.6" style="stroke:#475569;stroke-width:1;"/><text fill="#000000" font-family="'PingFang SC'" font-size="15" lengthAdjust="spacing" textLength="246.15" x="315.555" y="489.5">sleep(max(byteSleep, recordSleep))</text></g><g class="message" data-entity-1="part2" data-entity-2="part1" id="msg9"><polygon fill="#475569" points="72.275,554.6,62.275,558.6,72.275,562.6,68.275,558.6" style="stroke:#475569;stroke-width:1;"/><line style="stroke:#475569;stroke-width:1;stroke-dasharray:2,2;" x1="66.275" x2="302.555" y1="558.6" y2="558.6"/><text fill="#000000" font-family="'PingFang SC'" font-size="15" lengthAdjust="spacing" textLength="68.1" x="78.275" y="551.5">push &#23436;&#25104;</text></g><g class="message" data-entity-1="part4" data-entity-2="part2" id="msg10"><polygon fill="#475569" points="319.555,589.6,309.555,593.6,319.555,597.6,315.555,593.6" style="stroke:#475569;stroke-width:1;"/><line style="stroke:#475569;stroke-width:1;" x1="313.555" x2="773.7999" y1="593.6" y2="593.6"/><text fill="#000000" font-family="'PingFang SC'" font-size="15" lengthAdjust="spacing" textLength="102.855" x="325.555" y="586.5">pull() / pullAll()</text></g><g class="message" data-entity-1="part2" data-entity-2="part3" id="msg11"><polygon fill="#475569" points="566.7049,624.6,576.7049,628.6,566.7049,632.6,570.7049,628.6" style="stroke:#475569;stroke-width:1;"/><line style="stroke:#475569;stroke-width:1;" x1="308.555" x2="572.7049" y1="628.6" y2="628.6"/><text fill="#000000" font-family="'PingFang SC'" font-size="15" lengthAdjust="spacing" textLength="139.695" x="315.555" y="621.5">doPull() / doPullAll()</text></g><path d="M514.5299,643.6 L573.3499,643.6 L573.3499,656.6 L563.3499,666.6 L510.5299,666.6 L510.5299,647.6 A4,4 0 0 1 514.5299,643.6" fill="#EEEEEE" style="stroke:#000000;stroke-width:1.5;"/><rect fill="none" height="91" rx="4" ry="4" style="stroke:#000000;stroke-width:1.5;" width="497.855" x="510.5299" y="643.6"/><text fill="#000000" font-family="'PingFang SC'" font-size="15" font-weight="bold" lengthAdjust="spacing" textLength="17.82" x="525.5299" y="660.5">alt</text><text fill="#000000" font-family="'PingFang SC'" font-size="15" font-weight="bold" lengthAdjust="spacing" textLength="69.99" x="588.3499" y="661.5">[&#38431;&#21015;&#20026;&#31354;]</text><g class="message" data-entity-1="part3" data-entity-2="part3" id="msg12"><line style="stroke:#475569;stroke-width:1;" x1="588.7049" x2="630.7049" y1="706.6" y2="706.6"/><line style="stroke:#475569;stroke-width:1;" x1="630.7049" x2="630.7049" y1="706.6" y2="719.6"/><line style="stroke:#475569;stroke-width:1;" x1="589.7049" x2="630.7049" y1="719.6" y2="719.6"/><polygon fill="#475569" points="599.7049,715.6,589.7049,719.6,599.7049,723.6,595.7049,719.6" style="stroke:#475569;stroke-width:1;"/><text fill="#000000" font-family="'PingFang SC'" font-size="15" lengthAdjust="spacing" textLength="157.095" x="595.7049" y="699.5">take() / await(200 ms)</text></g><path d="M774.095,681.6 L774.095,725.6 A4,4 0 0 0 778.095,729.6 L983.095,729.6 A4,4 0 0 0 987.095,725.6 L987.095,687.6 L977.095,677.6 L778.095,677.6 A4,4 0 0 0 774.095,681.6" fill="#F8FAFC" style="stroke:#94A3B8;stroke-width:0.5;"/><path d="M977.095,677.6 L977.095,685.6 A2,2 0 0 0 979.095,687.6 L987.095,687.6 L977.095,677.6" fill="#F8FAFC" style="stroke:#94A3B8;stroke-width:0.5;"/><text fill="#000000" font-family="'PingFang SC'" font-size="15" lengthAdjust="spacing" textLength="104.43" x="780.095" y="698.5">&#31561; Reader &#20379;&#25968;</text><text fill="#000000" font-family="'PingFang SC'" font-size="15" lengthAdjust="spacing" textLength="192.585" x="780.095" y="719.5">&#26102;&#38388;&#32047;&#35745;&#21040; waitReaderTime</text><g class="message" data-entity-1="part3" data-entity-2="part2" id="msg14"><polygon fill="#475569" points="319.555,764.6,309.555,768.6,319.555,772.6,315.555,768.6" style="stroke:#475569;stroke-width:1;"/><line style="stroke:#475569;stroke-width:1;stroke-dasharray:2,2;" x1="313.555" x2="582.7049" y1="768.6" y2="768.6"/><text fill="#000000" font-family="'PingFang SC'" font-size="15" lengthAdjust="spacing" textLength="84.72" x="325.555" y="761.5">&#36820;&#22238; Record</text></g><g class="message" data-entity-1="part2" data-entity-2="part4" id="msg15"><polygon fill="#475569" points="762.7999,799.6,772.7999,803.6,762.7999,807.6,766.7999,803.6" style="stroke:#475569;stroke-width:1;"/><line style="stroke:#475569;stroke-width:1;stroke-dasharray:2,2;" x1="303.555" x2="768.7999" y1="803.6" y2="803.6"/><text fill="#000000" font-family="'PingFang SC'" font-size="15" lengthAdjust="spacing" textLength="59.235" x="310.555" y="796.5">pull &#23436;&#25104;</text></g><?plantuml-src ZLDTInj157tVNt7HbmHi_KpLGeKO21Ii12tqUSnEai7PsMLsOfe-5TfWX4g5sgPMK7neQH-Qva6afAX_niqc_wBpiT5D6gjlS-UUU-wzPyu88YY6J0anXkb3h-oN4aa8lxmDcaUzWrgtzIRS_zuxQGVjzvRbRnBc8OuSs43vpI9toypEkDJbK2aHWMDv6nTGcOgioyGgSZ2CvGWhPX4hmdfcR3HkdRp2C9sA9VqIijsAB8G2edwSNdVEkvnX3Wkn-pJdRiLCD3utdqezMembSuWBaYSUOcBPvJRc4N1sTcuwbRe5EBJdU7OXcyvcHeFL5X5iAZizFvEEmLPTWGUwBiwbPvSNXX5tjbiX1Rn2s4WkoxkP1TOmae2rCbCQ8H-uZWSWqQEhRDuS1zBFiEFoQWpaw8i1p0iktptMfQ9ZopBTuC5IdnaUW_OMn_BPx2HCwZ1DQNJZ9osK5sGB2NmzJBzKifZMaiHsSyQYaz5HKSHgenajH0NqFXy7zKRdpqcd_gbxLkjURiD6LU0Cyb2UYAe5VTfu0rH1H2HcfgR0aJC1CFaim4cn96G04FxSYPQ6RktYwdmtF6_gHATnrckSXgU_kisJeDu2HME0puc39GGpMvDPyc1P_Su32WMrhshcvhjEVS-oyV1ICJrkQdo1HEv6sOmqZvZGUweFbJHA42Rds48Kbfv0WQelmWHtwTFeMautabkk4ZORXip3s9QYcouwabMAEpZ_4EpizbuV1-rlHkNUmLvGFzEgZ1wPOkmb7FGoePbLDD4dLa4oQUGoIbrJI8x8LiPByAzGVUTOneV3_bDMqSwZTCWsTrakgZJ7EortzRiT_cYFzfT0crXptSDevW_3rSLXvsFhLfSPrFrTrhtS3mwF9BaI_7ysarMHZaQysmN_2m00?></g></svg>