<?plantuml 1.2026.2?><svg xmlns="http://www.w3.org/2000/svg" xmlns:xlink="http://www.w3.org/1999/xlink" contentStyleType="text/css" data-diagram-type="SEQUENCE" height="880px" preserveAspectRatio="none" style="width:898px;height:880px;background:#FFFFFF;" version="1.1" viewBox="0 0 898 880" width="898px" zoomAndPan="magnify"><title>Iceberg &#20004;&#20010; Writer &#30340;&#20048;&#35266;&#24182;&#21457;&#25552;&#20132;</title><defs/><g><text fill="#000000" font-family="'PingFang SC'" font-size="14" font-weight="bold" lengthAdjust="spacing" textLength="230.076" x="333.5945" y="29.84">Iceberg &#20004;&#20010; Writer &#30340;&#20048;&#35266;&#24182;&#21457;&#25552;&#20132;</text><g class="participant-lifeline" data-entity-uid="part1" data-qualified-name="a" id="part1-lifeline"><g><title>Writer A</title><rect fill="#000000" fill-opacity="0.00000" height="717" width="8" x="36.62" y="102.6"/><line style="stroke:#64748B;stroke-width:0.5;stroke-dasharray:5,5;" x1="40" x2="40" y1="102.6" y2="819.6"/></g></g><g class="participant-lifeline" data-entity-uid="part2" data-qualified-name="store" id="part2-lifeline"><g><title>.... . HDFS</title><rect fill="#000000" fill-opacity="0.00000" height="717" width="8" x="315.6649" y="102.6"/><line style="stroke:#64748B;stroke-width:0.5;stroke-dasharray:5,5;" x1="319.1574" x2="319.1574" y1="102.6" y2="819.6"/></g></g><g class="participant-lifeline" data-entity-uid="part3" data-qualified-name="catalog" id="part3-lifeline"><g><title>Catalog</title><rect fill="#000000" fill-opacity="0.00000" height="717" width="8" x="458.0074" y="102.6"/><line style="stroke:#64748B;stroke-width:0.5;stroke-dasharray:5,5;" x1="461.1724" x2="461.1724" y1="102.6" y2="819.6"/></g></g><g class="participant-lifeline" data-entity-uid="part4" data-qualified-name="b" id="part4-lifeline"><g><title>Writer B</title><rect fill="#000000" fill-opacity="0.00000" height="717" width="8" x="675.2749" y="102.6"/><line style="stroke:#64748B;stroke-width:0.5;stroke-dasharray:5,5;" x1="678.5049" x2="678.5049" y1="102.6" y2="819.6"/></g></g><g class="participant participant-head" data-entity-uid="part1" data-qualified-name="a" id="part1-head"><rect fill="#E0F2FE" height="35" rx="4" ry="4" style="stroke:#334155;stroke-width:0.5;" width="71.24" x="5" y="66.6"/><text fill="#000000" font-family="'PingFang SC'" font-size="15" lengthAdjust="spacing" textLength="57.24" x="12" y="89.5">Writer A</text></g><g class="participant participant-tail" data-entity-uid="part1" data-qualified-name="a" id="part1-tail"><rect fill="#E0F2FE" height="35" rx="4" ry="4" style="stroke:#334155;stroke-width:0.5;" width="71.24" x="5" y="818.6"/><text fill="#000000" font-family="'PingFang SC'" font-size="15" lengthAdjust="spacing" textLength="57.24" x="12" y="841.5">Writer A</text></g><g class="participant participant-head" data-entity-uid="part2" data-qualified-name="store" id="part2-head"><rect fill="#E0F2FE" height="35" rx="4" ry="4" style="stroke:#334155;stroke-width:0.5;" width="131.015" x="254.1574" y="66.6"/><text fill="#000000" font-family="'PingFang SC'" font-size="15" lengthAdjust="spacing" textLength="117.015" x="261.1574" y="89.5">&#23545;&#35937;&#23384;&#20648; / HDFS</text></g><g class="participant participant-tail" data-entity-uid="part2" data-qualified-name="store" id="part2-tail"><rect fill="#E0F2FE" height="35" rx="4" ry="4" style="stroke:#334155;stroke-width:0.5;" width="131.015" x="254.1574" y="818.6"/><text fill="#000000" font-family="'PingFang SC'" font-size="15" lengthAdjust="spacing" textLength="117.015" x="261.1574" y="841.5">&#23545;&#35937;&#23384;&#20648; / HDFS</text></g><g class="participant participant-head" data-entity-uid="part3" data-qualified-name="catalog" id="part3-head"><rect fill="#E0F2FE" height="56" rx="4" ry="4" style="stroke:#334155;stroke-width:0.5;" width="133.67" x="395.1724" y="45.6"/><text fill="#000000" font-family="'PingFang SC'" font-size="15" lengthAdjust="spacing" textLength="54.195" x="434.9099" y="68.5">Catalog</text><text fill="#000000" font-family="'PingFang SC'" font-size="15" lengthAdjust="spacing" textLength="119.67" x="402.1724" y="89.5">metadata pointer</text></g><g class="participant participant-tail" data-entity-uid="part3" data-qualified-name="catalog" id="part3-tail"><rect fill="#E0F2FE" height="56" rx="4" ry="4" style="stroke:#334155;stroke-width:0.5;" width="133.67" x="395.1724" y="818.6"/><text fill="#000000" font-family="'PingFang SC'" font-size="15" lengthAdjust="spacing" textLength="54.195" x="434.9099" y="841.5">Catalog</text><text fill="#000000" font-family="'PingFang SC'" font-size="15" lengthAdjust="spacing" textLength="119.67" x="402.1724" y="862.5">metadata pointer</text></g><g class="participant participant-head" data-entity-uid="part4" data-qualified-name="b" id="part4-head"><rect fill="#E0F2FE" height="35" rx="4" ry="4" style="stroke:#334155;stroke-width:0.5;" width="71.54" x="643.5049" y="66.6"/><text fill="#000000" font-family="'PingFang SC'" font-size="15" lengthAdjust="spacing" textLength="57.54" x="650.5049" y="89.5">Writer B</text></g><g class="participant participant-tail" data-entity-uid="part4" data-qualified-name="b" id="part4-tail"><rect fill="#E0F2FE" height="35" rx="4" ry="4" style="stroke:#334155;stroke-width:0.5;" width="71.54" x="643.5049" y="818.6"/><text fill="#000000" font-family="'PingFang SC'" font-size="15" lengthAdjust="spacing" textLength="57.54" x="650.5049" y="841.5">Writer B</text></g><g class="message" data-entity-1="part1" data-entity-2="part3" id="msg1"><polygon fill="#475569" points="450.0074,135.6,460.0074,139.6,450.0074,143.6,454.0074,139.6" style="stroke:#475569;stroke-width:1;"/><line style="stroke:#475569;stroke-width:1;" x1="40.62" x2="456.0074" y1="139.6" y2="139.6"/><text fill="#000000" font-family="'PingFang SC'" font-size="15" lengthAdjust="spacing" textLength="166.05" x="47.62" y="132.5">&#35835;&#21462; base metadata v10</text></g><g class="message" data-entity-1="part3" data-entity-2="part1" id="msg2"><polygon fill="#475569" points="51.62,170.6,41.62,174.6,51.62,178.6,47.62,174.6" style="stroke:#475569;stroke-width:1;"/><line style="stroke:#475569;stroke-width:1;stroke-dasharray:2,2;" x1="45.62" x2="461.0074" y1="174.6" y2="174.6"/><text fill="#000000" font-family="'PingFang SC'" font-size="15" lengthAdjust="spacing" textLength="22.245" x="57.62" y="167.5">v10</text></g><g class="message" data-entity-1="part4" data-entity-2="part3" id="msg3"><polygon fill="#475569" points="473.0074,205.6,463.0074,209.6,473.0074,213.6,469.0074,209.6" style="stroke:#475569;stroke-width:1;"/><line style="stroke:#475569;stroke-width:1;" x1="467.0074" x2="678.2749" y1="209.6" y2="209.6"/><text fill="#000000" font-family="'PingFang SC'" font-size="15" lengthAdjust="spacing" textLength="166.05" x="479.0074" y="202.5">&#35835;&#21462; base metadata v10</text></g><g class="message" data-entity-1="part3" data-entity-2="part4" id="msg4"><polygon fill="#475569" points="667.2749,240.6,677.2749,244.6,667.2749,248.6,671.2749,244.6" style="stroke:#475569;stroke-width:1;"/><line style="stroke:#475569;stroke-width:1;stroke-dasharray:2,2;" x1="462.0074" x2="673.2749" y1="244.6" y2="244.6"/><text fill="#000000" font-family="'PingFang SC'" font-size="15" lengthAdjust="spacing" textLength="22.245" x="469.0074" y="237.5">v10</text></g><g class="message" data-entity-1="part1" data-entity-2="part2" id="msg5"><polygon fill="#475569" points="307.6649,275.6,317.6649,279.6,307.6649,283.6,311.6649,279.6" style="stroke:#475569;stroke-width:1;"/><line style="stroke:#475569;stroke-width:1;" x1="40.62" x2="313.6649" y1="279.6" y2="279.6"/><text fill="#000000" font-family="'PingFang SC'" font-size="15" lengthAdjust="spacing" textLength="255.0449" x="47.62" y="272.5">&#20889; data / manifest / metadata v11-A</text></g><g class="message" data-entity-1="part4" data-entity-2="part2" id="msg6"><polygon fill="#475569" points="330.6649,310.6,320.6649,314.6,330.6649,318.6,326.6649,314.6" style="stroke:#475569;stroke-width:1;"/><line style="stroke:#475569;stroke-width:1;" x1="324.6649" x2="678.2749" y1="314.6" y2="314.6"/><text fill="#000000" font-family="'PingFang SC'" font-size="15" lengthAdjust="spacing" textLength="255.3449" x="336.6649" y="307.5">&#20889; data / manifest / metadata v11-B</text></g><g class="message" data-entity-1="part1" data-entity-2="part3" id="msg7"><polygon fill="#475569" points="450.0074,345.6,460.0074,349.6,450.0074,353.6,454.0074,349.6" style="stroke:#475569;stroke-width:1;"/><line style="stroke:#475569;stroke-width:1;" x1="40.62" x2="456.0074" y1="349.6" y2="349.6"/><text fill="#000000" font-family="'PingFang SC'" font-size="15" lengthAdjust="spacing" textLength="127.785" x="47.62" y="342.5">CAS: v10 -&gt; v11-A</text></g><g class="message" data-entity-1="part3" data-entity-2="part1" id="msg8"><polygon fill="#475569" points="51.62,380.6,41.62,384.6,51.62,388.6,47.62,384.6" style="stroke:#475569;stroke-width:1;"/><line style="stroke:#475569;stroke-width:1;stroke-dasharray:2,2;" x1="45.62" x2="461.0074" y1="384.6" y2="384.6"/><text fill="#000000" font-family="'PingFang SC'" font-size="15" lengthAdjust="spacing" textLength="70.545" x="57.62" y="377.5">SUCCESS</text></g><g class="message" data-entity-1="part4" data-entity-2="part3" id="msg9"><polygon fill="#475569" points="473.0074,415.6,463.0074,419.6,473.0074,423.6,469.0074,419.6" style="stroke:#475569;stroke-width:1;"/><line style="stroke:#475569;stroke-width:1;" x1="467.0074" x2="678.2749" y1="419.6" y2="419.6"/><text fill="#000000" font-family="'PingFang SC'" font-size="15" lengthAdjust="spacing" textLength="128.085" x="479.0074" y="412.5">CAS: v10 -&gt; v11-B</text></g><g class="message" data-entity-1="part3" data-entity-2="part4" id="msg10"><polygon fill="#475569" points="667.2749,450.6,677.2749,454.6,667.2749,458.6,671.2749,454.6" style="stroke:#475569;stroke-width:1;"/><line style="stroke:#475569;stroke-width:1;stroke-dasharray:2,2;" x1="462.0074" x2="673.2749" y1="454.6" y2="454.6"/><text fill="#000000" font-family="'PingFang SC'" font-size="15" lengthAdjust="spacing" textLength="164.895" x="469.0074" y="447.5">CommitFailedException</text></g><g class="message" data-entity-1="part4" data-entity-2="part3" id="msg11"><polygon fill="#475569" points="473.0074,485.6,463.0074,489.6,473.0074,493.6,469.0074,489.6" style="stroke:#475569;stroke-width:1;"/><line style="stroke:#475569;stroke-width:1;" x1="467.0074" x2="678.2749" y1="489.6" y2="489.6"/><text fill="#000000" font-family="'PingFang SC'" font-size="15" lengthAdjust="spacing" textLength="154.845" x="479.0074" y="482.5">refresh &#24403;&#21069; metadata</text></g><g class="message" data-entity-1="part3" data-entity-2="part4" id="msg12"><polygon fill="#475569" points="667.2749,520.6,677.2749,524.6,667.2749,528.6,671.2749,524.6" style="stroke:#475569;stroke-width:1;"/><line style="stroke:#475569;stroke-width:1;stroke-dasharray:2,2;" x1="462.0074" x2="673.2749" y1="524.6" y2="524.6"/><text fill="#000000" font-family="'PingFang SC'" font-size="15" lengthAdjust="spacing" textLength="38.19" x="469.0074" y="517.5">v11-A</text></g><g class="message" data-entity-1="part4" data-entity-2="part4" id="msg13"><line style="stroke:#475569;stroke-width:1;" x1="679.2749" x2="721.2749" y1="559.6" y2="559.6"/><line style="stroke:#475569;stroke-width:1;" x1="721.2749" x2="721.2749" y1="559.6" y2="572.6"/><line style="stroke:#475569;stroke-width:1;" x1="680.2749" x2="721.2749" y1="572.6" y2="572.6"/><polygon fill="#475569" points="690.2749,568.6,680.2749,572.6,690.2749,576.6,686.2749,572.6" style="stroke:#475569;stroke-width:1;"/><text fill="#000000" font-family="'PingFang SC'" font-size="15" lengthAdjust="spacing" textLength="204.99" x="686.2749" y="552.5">&#22312;&#26032; base &#19978;&#37325;&#26032;&#39564;&#35777;&#24182; apply</text></g><g class="message" data-entity-1="part4" data-entity-2="part2" id="msg14"><polygon fill="#475569" points="330.6649,603.6,320.6649,607.6,330.6649,611.6,326.6649,607.6" style="stroke:#475569;stroke-width:1;"/><line style="stroke:#475569;stroke-width:1;" x1="324.6649" x2="678.2749" y1="607.6" y2="607.6"/><text fill="#000000" font-family="'PingFang SC'" font-size="15" lengthAdjust="spacing" textLength="335.61" x="336.6649" y="600.5">&#22797;&#29992; data/manifest&#65292;&#20889;&#26032; manifest list &#19982; v12-B</text></g><g class="message" data-entity-1="part4" data-entity-2="part3" id="msg15"><polygon fill="#475569" points="473.0074,638.6,463.0074,642.6,473.0074,646.6,469.0074,642.6" style="stroke:#475569;stroke-width:1;"/><line style="stroke:#475569;stroke-width:1;" x1="467.0074" x2="678.2749" y1="642.6" y2="642.6"/><text fill="#000000" font-family="'PingFang SC'" font-size="15" lengthAdjust="spacing" textLength="147.015" x="479.0074" y="635.5">CAS: v11-A -&gt; v12-B</text></g><g class="message" data-entity-1="part3" data-entity-2="part4" id="msg16"><polygon fill="#475569" points="667.2749,673.6,677.2749,677.6,667.2749,681.6,671.2749,677.6" style="stroke:#475569;stroke-width:1;"/><line style="stroke:#475569;stroke-width:1;stroke-dasharray:2,2;" x1="462.0074" x2="673.2749" y1="677.6" y2="677.6"/><text fill="#000000" font-family="'PingFang SC'" font-size="15" lengthAdjust="spacing" textLength="70.545" x="469.0074" y="670.5">SUCCESS</text></g><path d="M225,694.6 L225,738.6 A4,4 0 0 0 229,742.6 L552,742.6 A4,4 0 0 0 556,738.6 L556,700.6 L546,690.6 L229,690.6 A4,4 0 0 0 225,694.6" fill="#FEFFDD" style="stroke:#181818;stroke-width:0.5;"/><path d="M546,690.6 L546,698.6 A2,2 0 0 0 548,700.6 L556,700.6 L546,690.6" fill="#FEFFDD" style="stroke:#181818;stroke-width:0.5;"/><text fill="#000000" font-family="'PingFang SC'" font-size="15" lengthAdjust="spacing" textLength="310.395" x="231" y="711.5">&#25991;&#20214;&#20808;&#20889;&#20837;&#65307;&#21482;&#26377; catalog pointer &#20999;&#25442;&#25104;&#21151;&#65292;</text><text fill="#000000" font-family="'PingFang SC'" font-size="15" lengthAdjust="spacing" textLength="202.92" x="231" y="732.5">&#26032; snapshot &#25165;&#23545; reader &#21487;&#35265;</text><path d="M362,756.6 L362,800.6 A4,4 0 0 0 366,804.6 L775,804.6 A4,4 0 0 0 779,800.6 L779,762.6 L769,752.6 L366,752.6 A4,4 0 0 0 362,756.6" fill="#FEFFDD" style="stroke:#181818;stroke-width:0.5;"/><path d="M769,752.6 L769,760.6 A2,2 0 0 0 771,762.6 L779,762.6 L769,752.6" fill="#FEFFDD" style="stroke:#181818;stroke-width:0.5;"/><text fill="#000000" font-family="'PingFang SC'" font-size="15" lengthAdjust="spacing" textLength="263.865" x="368" y="773.5">&#32593;&#32476;&#24322;&#24120;&#21487;&#33021;&#35753;&#32467;&#26524;&#21464;&#25104; UNKNOWN&#65307;</text><text fill="#000000" font-family="'PingFang SC'" font-size="15" lengthAdjust="spacing" textLength="396.2399" x="368" y="794.5">&#20808;&#26597; current / previous metadata&#65292;&#19981;&#33021;&#30450;&#30446;&#37325;&#35797;&#25110;&#21024;&#25991;&#20214;</text><?plantuml-src dLDFJnD15B_lftY1AmGABQ07atRjHYEf90tXucMwdRORjZFhx1Ry4m-WI27KGj06fH4r4914YXv8iV1jThRrn5TmThSjPUb5Bqrdtk_z_hnvQscMZk6XYbEOPS6kxzlrOvXZceKPD3-ziSytMuVB_FoCbxUSygRzUr-Ip7cD68YXFAIGEfzbj43ICjKfWyMSwEkfft465NHBeSHAe3o6WHcDP1L4if2K1_hZajeB3A58Jz7CeJHT58sGGRhPI-yfgvGHuNMgvpxA65tq7Gs69oEHYJkzTFXf0HCLmqi9-Y41fhKCdjO8Zb6MngnTdGXFXgTYlTL0za5bIeagia3C86PfgcOWOjsW61yFXoAH02384XzLnfIuz4gIZ6iK3BHV93e0o0HqiyPhvwsVN_cF7Rvy12FmuBwIz62cHHc-2PMHXNIQVKBos49fSG23QaGmUmsgN-sh7FCGAKb2C7olWuIxqAerUBaYDi74q2LT28rA7SYmW2C1TEzI_z6RQlVwmbucSSFVVWGFFW9vHCIJc9RxzveaD1prvVwX8tOhdHnDUkhkhSyPZ9MSbULuCXcC5coCtSeaqtnUinIawJWTVwPYmz8eaO8y36SODdF0BxVvMgbhjy-4ke7T8wyUEPLJVx9sVVtFQaaS_nnlj6fBubi6P1Zwyy1uzalDzqVUX4Owyxcws11JSucw4zCryMFNtmd1CH6gVsfXnSyzrYTtPs0IeHO6kY1so_CmrDa-0AUoQZVE-4fHgFELWwkBNLu-TgfhNQNsqW8lhZgbRqvnaw_l2RDUwocO11bcZbhWh9N4jo5cYD8kk5nh7Iv9cAJ1bUurqEOTIWc6vkLMir7b5ykyNdTRNb-sJhut6zlEvoelxmWjc4qyIZoUImXR0YvSEdi7e1OOmyJTA8FX1OqMpEvR2MDslIHuchk_chiduYrQjGzEiSABN_oWNKj_0G00?></g></svg>