<?plantuml 1.2026.2?><svg xmlns="http://www.w3.org/2000/svg" xmlns:xlink="http://www.w3.org/1999/xlink" contentStyleType="text/css" data-diagram-type="DESCRIPTION" height="351px" preserveAspectRatio="none" style="width:1356px;height:351px;background:#FFFFFF;" version="1.1" viewBox="0 0 1356 351" width="1356px" zoomAndPan="magnify"><title>&#19968;&#27425; LLM Run &#30340;&#35777;&#25454;&#26641;</title><defs/><g><g class="title" data-source-line="1"><text fill="#000000" font-family="'PingFang SC'" font-size="14" font-weight="bold" lengthAdjust="spacing" textLength="153.244" x="594.51" y="24.84">&#19968;&#27425; LLM Run &#30340;&#35777;&#25454;&#26641;</text></g><!--entity run--><g class="entity" data-qualified-name="run" data-source-line="14" id="ent0002"><rect fill="#E0F2FE" height="59.2" rx="4" ry="4" style="stroke:#475569;stroke-width:0.5;" width="253.954" x="512.2" y="47.6"/><text fill="#000000" font-family="'PingFang SC'" font-size="14" lengthAdjust="spacing" textLength="25.13" x="522.2" y="72.44">Run</text><text fill="#000000" font-family="'PingFang SC'" font-size="14" lengthAdjust="spacing" textLength="233.954" x="522.2" y="92.04">run_id / user / bundle / final_status</text></g><!--entity input--><g class="entity" data-qualified-name="input" data-source-line="15" id="ent0003"><rect fill="#F8FAFC" height="59.2" rx="4" ry="4" style="stroke:#475569;stroke-width:0.5;" width="200.362" x="7" y="166.8"/><text fill="#000000" font-family="'PingFang SC'" font-size="14" lengthAdjust="spacing" textLength="32.158" x="17" y="191.64">Input</text><text fill="#000000" font-family="'PingFang SC'" font-size="14" lengthAdjust="spacing" textLength="180.362" x="17" y="211.24">messages / auth / deadline</text></g><!--entity retrieval--><g class="entity" data-qualified-name="retrieval" data-source-line="16" id="ent0004"><rect fill="#F8FAFC" height="59.2" rx="4" ry="4" style="stroke:#475569;stroke-width:0.5;" width="216.784" x="242.79" y="166.8"/><text fill="#000000" font-family="'PingFang SC'" font-size="14" lengthAdjust="spacing" textLength="56.532" x="252.79" y="191.64">Retrieval</text><text fill="#000000" font-family="'PingFang SC'" font-size="14" lengthAdjust="spacing" textLength="196.784" x="252.79" y="211.24">query / candidates / evidence</text></g><!--entity model--><g class="entity" data-qualified-name="model" data-source-line="17" id="ent0005"><rect fill="#FEF3C7" height="59.2" rx="4" ry="4" style="stroke:#475569;stroke-width:0.5;" width="289.962" x="494.2" y="166.8"/><text fill="#000000" font-family="'PingFang SC'" font-size="14" lengthAdjust="spacing" textLength="96.53" x="504.2" y="191.64">Model Attempt</text><text fill="#000000" font-family="'PingFang SC'" font-size="14" lengthAdjust="spacing" textLength="269.962" x="504.2" y="211.24">provider / snapshot / raw events / usage</text></g><!--entity tool--><g class="entity" data-qualified-name="tool" data-source-line="18" id="ent0006"><rect fill="#F8FAFC" height="59.2" rx="4" ry="4" style="stroke:#475569;stroke-width:0.5;" width="260.716" x="818.82" y="166.8"/><text fill="#000000" font-family="'PingFang SC'" font-size="14" lengthAdjust="spacing" textLength="57.624" x="828.82" y="191.64">Tool Call</text><text fill="#000000" font-family="'PingFang SC'" font-size="14" lengthAdjust="spacing" textLength="240.716" x="828.82" y="211.24">proposal / policy / operation / result</text></g><!--entity final--><g class="entity" data-qualified-name="final" data-source-line="19" id="ent0007"><rect fill="#F8FAFC" height="59.2" rx="4" ry="4" style="stroke:#475569;stroke-width:0.5;" width="236.174" x="1114.09" y="166.8"/><text fill="#000000" font-family="'PingFang SC'" font-size="14" lengthAdjust="spacing" textLength="73.416" x="1124.09" y="191.64">Finalization</text><text fill="#000000" font-family="'PingFang SC'" font-size="14" lengthAdjust="spacing" textLength="216.174" x="1124.09" y="211.24">claims / citations / output status</text></g><!--entity store--><g class="entity" data-qualified-name="store" data-source-line="20" id="ent0008"><rect fill="#DCFCE7" height="59.2" rx="4" ry="4" style="stroke:#475569;stroke-width:0.5;" width="241.858" x="518.25" y="286"/><text fill="#000000" font-family="'PingFang SC'" font-size="14" lengthAdjust="spacing" textLength="98.042" x="528.25" y="310.84">Evidence Store</text><text fill="#000000" font-family="'PingFang SC'" font-size="14" lengthAdjust="spacing" textLength="221.858" x="528.25" y="330.44">span events + immutable artifacts</text></g><g class="entity" data-qualified-name="GMN19" data-source-line="34" id="ent0020"><path d="M800.68,56.6 L800.68,73.2 L766.51,77.2 L800.68,81.2 L800.68,97.8 A4,4 0 0 0 804.68,101.8 L1003.684,101.8 A4,4 0 0 0 1007.684,97.8 L1007.684,62.6 L997.684,52.6 L804.68,52.6 A4,4 0 0 0 800.68,56.6" fill="#FEFFDD" style="stroke:#181818;stroke-width:0.5;"/><path d="M997.684,52.6 L997.684,60.6 A2,2 0 0 0 999.684,62.6 L1007.684,62.6 L997.684,52.6" fill="#FEFFDD" style="stroke:#181818;stroke-width:0.5;"/><text fill="#000000" font-family="'PingFang SC'" font-size="14" lengthAdjust="spacing" textLength="183.12" x="806.68" y="72.44">&#19968;&#20010; HTTP request &#21487;&#20197;&#21253;&#21547;</text><text fill="#000000" font-family="'PingFang SC'" font-size="14" lengthAdjust="spacing" textLength="186.004" x="806.68" y="92.04">&#22810;&#20010;&#27169;&#22411; attempt &#21644;&#24037;&#20855;&#25805;&#20316;</text></g><!--link run to input--><g class="link" data-entity-1="ent0002" data-entity-2="ent0003" data-link-type="dependency" data-source-line="22" id="lnk9"><path d="M512.15,104.46 C430.14,121.64 321.21,144.89 225.18,166.8 C219.43,168.11 219.361,168.1079 213.401,169.5079" fill="none" id="run-to-input" style="stroke:#475569;stroke-width:1;"/><polygon fill="#475569" points="207.56,170.88,217.2362,172.7159,212.4275,169.7366,215.4068,164.9279,207.56,170.88" style="stroke:#475569;stroke-width:1;"/></g><!--link run to retrieval--><g class="link" data-entity-1="ent0002" data-entity-2="ent0004" data-link-type="dependency" data-source-line="23" id="lnk10"><path d="M567.99,107.17 C523.68,125.2 472.4472,146.0478 428.1072,164.0978" fill="none" id="run-to-retrieval" style="stroke:#475569;stroke-width:1;"/><polygon fill="#475569" points="422.55,166.36,432.3939,166.6714,427.181,164.4748,429.3776,159.2619,422.55,166.36" style="stroke:#475569;stroke-width:1;"/></g><!--link run to model--><g class="link" data-entity-1="ent0002" data-entity-2="ent0005" data-link-type="dependency" data-source-line="24" id="lnk11"><path d="M639.18,107.17 C639.18,125.2 639.18,142.31 639.18,160.36" fill="none" id="run-to-model" style="stroke:#475569;stroke-width:1;"/><polygon fill="#475569" points="639.18,166.36,643.18,157.36,639.18,161.36,635.18,157.36,639.18,166.36" style="stroke:#475569;stroke-width:1;"/></g><!--link run to tool--><g class="link" data-entity-1="ent0002" data-entity-2="ent0006" data-link-type="dependency" data-source-line="25" id="lnk12"><path d="M715.81,107.17 C763.5,125.2 819.0179,146.1877 866.7479,164.2377" fill="none" id="run-to-tool" style="stroke:#475569;stroke-width:1;"/><polygon fill="#475569" points="872.36,166.36,865.3567,159.4351,867.6832,164.5914,862.527,166.9179,872.36,166.36" style="stroke:#475569;stroke-width:1;"/></g><!--link run to final--><g class="link" data-entity-1="ent0002" data-entity-2="ent0007" data-link-type="dependency" data-source-line="26" id="lnk13"><path d="M766.38,103.51 C772.06,104.63 777.68,105.73 783.18,106.8 C922.64,133.97 957.9,138.74 1097.18,166.8 C1102.58,167.89 1102.2235,167.7989 1107.8035,168.9489" fill="none" id="run-to-final" style="stroke:#475569;stroke-width:1;"/><polygon fill="#475569" points="1113.68,170.16,1105.6727,164.4257,1108.7829,169.1507,1104.0578,172.261,1113.68,170.16" style="stroke:#475569;stroke-width:1;"/></g><!--link input to store--><g class="link" data-entity-1="ent0003" data-entity-2="ent0008" data-link-type="dependency" data-source-line="27" id="lnk14"><path d="M207.56,221.92 C213.52,223.32 219.43,224.69 225.18,226 C323.54,248.44 429.5573,271.0506 512.1973,288.3506" fill="none" id="input-to-store" style="stroke:#475569;stroke-width:1;"/><polygon fill="#475569" points="518.07,289.58,510.0806,283.8208,513.1761,288.5555,508.4414,291.651,518.07,289.58" style="stroke:#475569;stroke-width:1;"/></g><!--link retrieval to store--><g class="link" data-entity-1="ent0004" data-entity-2="ent0008" data-link-type="dependency" data-source-line="28" id="lnk15"><path d="M422.37,226.37 C466.68,244.4 517.9128,265.2478 562.2528,283.2978" fill="none" id="retrieval-to-store" style="stroke:#475569;stroke-width:1;"/><polygon fill="#475569" points="567.81,285.56,560.9824,278.4619,563.179,283.6748,557.9661,285.8714,567.81,285.56" style="stroke:#475569;stroke-width:1;"/></g><!--link model to store--><g class="link" data-entity-1="ent0005" data-entity-2="ent0008" data-link-type="dependency" data-source-line="29" id="lnk16"><path d="M639.18,226.37 C639.18,244.4 639.18,261.51 639.18,279.56" fill="none" id="model-to-store" style="stroke:#475569;stroke-width:1;"/><polygon fill="#475569" points="639.18,285.56,643.18,276.56,639.18,280.56,635.18,276.56,639.18,285.56" style="stroke:#475569;stroke-width:1;"/></g><!--link tool to store--><g class="link" data-entity-1="ent0006" data-entity-2="ent0008" data-link-type="dependency" data-source-line="30" id="lnk17"><path d="M872.55,226.37 C824.86,244.4 769.3421,265.3877 721.6121,283.4377" fill="none" id="tool-to-store" style="stroke:#475569;stroke-width:1;"/><polygon fill="#475569" points="716,285.56,725.833,286.1179,720.6768,283.7914,723.0033,278.6351,716,285.56" style="stroke:#475569;stroke-width:1;"/></g><!--link final to store--><g class="link" data-entity-1="ent0007" data-entity-2="ent0008" data-link-type="dependency" data-source-line="31" id="lnk18"><path d="M1113.68,222.63 C1108.1,223.78 1102.58,224.91 1097.18,226 C983.08,249.12 858.6045,273.0897 766.2145,290.6497" fill="none" id="final-to-store" style="stroke:#475569;stroke-width:1;"/><polygon fill="#475569" points="760.32,291.77,769.9086,294.0192,765.2321,290.8364,768.4148,286.1599,760.32,291.77" style="stroke:#475569;stroke-width:1;"/></g><?plantuml-src RPDDQnH148RlyokAtQE4zICnyIB4SGU5H8B9SI5KPdftc_HqZzqrMOm82id91BzkGSI00L4nnmJ4VxEp-ZEiwTbDEk9fkghVz-cgwXwIf0ICprzClX_3oiegF2ur_3xQ-tFwSdBuO_BfRHIvRQaBj9Z35gRR0sjAdSL66GkZeIGHx6UYZwMYn6XwXBc0rfhKWmJr0DRZrlzrwt9Nm8tvODCDCJCZDa8VbGln_kJKM2qiB0NvPMlDgAceFR-ui73xJcWIAN45tEIp2E2UiPcmLxMS_QUlThAKB2Tnz3oABkqjdanFsr9loWmwK3gkeWDRREBD3lIbHhNf2AbqBK07h8HsztfoC-c6b8UwAAcdS-4S3eHZ9vOqv4ycC5DI2s-MjUhAuOAi53keUlf9AUnJDgIeCvaXUOZOaPdGQUEsCt58M3MPKB1C9FA22oYigIrr3qvZuOQ6U6bnn2YXoVaMkK8FpBstdNIJM_5Y2DqmHa6CIdbWOHmgDXP6oRGkqHJ28acZQxHmVESUH-mAAKazExdhbJsTAfHvVNugoQVgjIc99mB1VFt0GqftEW9O9sD5Jxi2zQoPQo3pl2JSOY5QadrCgS6uMWpj-t4ITnVvlldMvkRkpYvW6WK3dMRyH2wYfg5fq1Jc0Jxs9qGNY23NZFKohZ51w45176b30gmS30bCltvW_7RvrnsVVuK76njhN2Q_3KTGlJuT_pof3lQhDzzOKdq-Oidaot7ryHLWym2WUdTGdPrK-sUJzuVZNnyYeJEe-Ny1?></g></svg>