<?plantuml 1.2026.2?><svg xmlns="http://www.w3.org/2000/svg" xmlns:xlink="http://www.w3.org/1999/xlink" contentStyleType="text/css" data-diagram-type="DESCRIPTION" height="794px" preserveAspectRatio="none" style="width:955px;height:794px;background:#FFFFFF;" version="1.1" viewBox="0 0 955 794" width="955px" zoomAndPan="magnify"><title>YARN &#38431;&#21015;&#23481;&#37327;&#30340;&#35774;&#35745;&#19982;&#22238;&#25910;</title><defs/><g><g class="title" data-source-line="1"><text fill="#000000" font-family="'PingFang SC'" font-size="14" font-weight="bold" lengthAdjust="spacing" textLength="183.848" x="378.811" y="24.84">YARN &#38431;&#21015;&#23481;&#37327;&#30340;&#35774;&#35745;&#19982;&#22238;&#25910;</text></g><!--entity history--><g class="entity" data-qualified-name="history" data-source-line="15" id="ent0002"><rect fill="#E0F2FE" height="83" rx="4" ry="4" style="stroke:#334155;stroke-width:0.5;" width="279.1099" x="439.05" y="47.6"/><text fill="#0F172A" font-family="'PingFang SC'" font-size="15" lengthAdjust="spacing" textLength="75" x="449.05" y="73.5">&#21382;&#21490;&#26102;&#38388;&#29255;</text><text fill="#0F172A" font-family="'PingFang SC'" font-size="15" lengthAdjust="spacing" textLength="259.1099" x="449.05" y="94.5">&#27599;&#38431;&#21015; demand / allocated / pending</text><text fill="#0F172A" font-family="'PingFang SC'" font-size="15" lengthAdjust="spacing" textLength="255.975" x="449.05" y="115.5">&#20219;&#21153;&#21040;&#36798;&#12289;Container &#26102;&#38271;&#12289;&#23436;&#25104; SLA</text></g><!--entity overlap--><g class="entity" data-qualified-name="overlap" data-source-line="16" id="ent0003"><rect fill="#DBEAFE" height="62" rx="4" ry="4" style="stroke:#334155;stroke-width:0.5;" width="245" x="301.11" y="191.6"/><text fill="#0F172A" font-family="'PingFang SC'" font-size="15" lengthAdjust="spacing" textLength="90" x="311.11" y="217.5">&#23792;&#20540;&#37325;&#21472;&#20998;&#26512;</text><text fill="#0F172A" font-family="'PingFang SC'" font-size="15" lengthAdjust="spacing" textLength="225" x="311.11" y="238.5">&#21738;&#20123;&#20851;&#38190;&#24037;&#20316;&#36127;&#36733;&#22312;&#21516;&#19968;&#31383;&#21475;&#20986;&#29616;</text></g><!--entity guaranteed--><g class="entity" data-qualified-name="guaranteed" data-source-line="17" id="ent0004"><rect fill="#DCFCE7" height="62" rx="4" ry="4" style="stroke:#334155;stroke-width:0.5;" width="230" x="103.61" y="314.6"/><text fill="#0F172A" font-family="'PingFang SC'" font-size="15" lengthAdjust="spacing" textLength="123.57" x="113.61" y="340.5">&#20445;&#35777;&#23481;&#37327; capacity</text><text fill="#0F172A" font-family="'PingFang SC'" font-size="15" lengthAdjust="spacing" textLength="210" x="113.61" y="361.5">&#30446;&#26631;&#31561;&#24453;&#26102;&#38388;&#20869;&#24517;&#39035;&#21551;&#21160;&#30340;&#38656;&#27714;</text></g><!--entity elastic--><g class="entity" data-qualified-name="elastic" data-source-line="18" id="ent0005"><rect fill="#FEF3C7" height="62" rx="4" ry="4" style="stroke:#334155;stroke-width:0.5;" width="309.3799" x="34.92" y="459.6"/><text fill="#0F172A" font-family="'PingFang SC'" font-size="15" lengthAdjust="spacing" textLength="60" x="44.92" y="485.5">&#24377;&#24615;&#21306;&#38388;</text><text fill="#0F172A" font-family="'PingFang SC'" font-size="15" lengthAdjust="spacing" textLength="289.3799" x="44.92" y="506.5">&#31354;&#38386;&#26102;&#21487;&#20511;&#29992;&#65292;maximum-capacity &#38480;&#19978;&#30028;</text></g><!--entity reclaim--><g class="entity" data-qualified-name="reclaim" data-source-line="19" id="ent0006"><rect fill="#FDE68A" height="83" rx="4" ry="4" style="stroke:#334155;stroke-width:0.5;" width="277.22" x="7" y="582.6"/><text fill="#0F172A" font-family="'PingFang SC'" font-size="15" lengthAdjust="spacing" textLength="60" x="17" y="608.5">&#36164;&#28304;&#22238;&#25910;</text><text fill="#0F172A" font-family="'PingFang SC'" font-size="15" lengthAdjust="spacing" textLength="158.865" x="17" y="629.5">&#33258;&#28982;&#32467;&#26463;&#25110; preemption</text><text fill="#0F172A" font-family="'PingFang SC'" font-size="15" lengthAdjust="spacing" textLength="257.22" x="17" y="650.5">&#35266;&#23519;&#24402;&#36824; guaranteed capacity &#30340;&#32791;&#26102;</text></g><!--entity verify--><g class="entity" data-qualified-name="verify" data-source-line="20" id="ent0007"><rect fill="#DCFCE7" height="62" rx="4" ry="4" style="stroke:#334155;stroke-width:0.5;" width="318.53" x="246.34" y="726.6"/><text fill="#0F172A" font-family="'PingFang SC'" font-size="15" lengthAdjust="spacing" textLength="30" x="256.34" y="752.5">&#39564;&#35777;</text><text fill="#0F172A" font-family="'PingFang SC'" font-size="15" lengthAdjust="spacing" textLength="298.53" x="256.34" y="773.5">&#20851;&#38190;&#20316;&#19994; SLA&#12289;pending&#12289;&#37325;&#31639;&#25104;&#26412;&#19982;&#21033;&#29992;&#29575;</text></g><g class="entity" data-qualified-name="GMN15" data-source-line="30" id="ent0016"><path d="M752.75,67.1 L752.75,85.1 L718.59,89.1 L752.75,93.1 L752.75,111.1 A4,4 0 0 0 756.75,115.1 L944.47,115.1 A4,4 0 0 0 948.47,111.1 L948.47,73.1 L938.47,63.1 L756.75,63.1 A4,4 0 0 0 752.75,67.1" fill="#FEFFDD" style="stroke:#181818;stroke-width:0.5;"/><path d="M938.47,63.1 L938.47,71.1 A2,2 0 0 0 940.47,73.1 L948.47,73.1 L938.47,63.1" fill="#FEFFDD" style="stroke:#181818;stroke-width:0.5;"/><text fill="#000000" font-family="'PingFang SC'" font-size="15" lengthAdjust="spacing" textLength="174.72" x="758.75" y="84">Allocated &#34987;&#37197;&#39069;&#25130;&#26029;&#26102;&#65292;</text><text fill="#000000" font-family="'PingFang SC'" font-size="15" lengthAdjust="spacing" textLength="152.295" x="758.75" y="105">&#19981;&#33021;&#20195;&#34920;&#30495;&#23454; Demand</text></g><g class="entity" data-qualified-name="GMN18" data-source-line="35" id="ent0019"><path d="M369.04,323.6 L369.04,341.6 L334.1,345.6 L369.04,349.6 L369.04,367.6 A4,4 0 0 0 373.04,371.6 L604.185,371.6 A4,4 0 0 0 608.185,367.6 L608.185,329.6 L598.185,319.6 L373.04,319.6 A4,4 0 0 0 369.04,323.6" fill="#FEFFDD" style="stroke:#181818;stroke-width:0.5;"/><path d="M598.185,319.6 L598.185,327.6 A2,2 0 0 0 600.185,329.6 L608.185,329.6 L598.185,319.6" fill="#FEFFDD" style="stroke:#181818;stroke-width:0.5;"/><text fill="#000000" font-family="'PingFang SC'" font-size="15" lengthAdjust="spacing" textLength="180" x="375.04" y="340.5">&#24179;&#22343;&#20351;&#29992;&#29575;&#29992;&#20110;&#25104;&#26412;&#35266;&#23519;&#65292;</text><text fill="#000000" font-family="'PingFang SC'" font-size="15" lengthAdjust="spacing" textLength="218.145" x="375.04" y="361.5">&#23792;&#20540;&#37325;&#21472;&#19982;&#31561;&#24453; SLA &#20915;&#23450;&#20445;&#35777;&#37327;</text></g><g class="entity" data-qualified-name="GMN21" data-source-line="40" id="ent0022"><path d="M319.7,602.1 L319.7,620.1 L284.48,624.1 L319.7,628.1 L319.7,646.1 A4,4 0 0 0 323.7,650.1 L609.5199,650.1 A4,4 0 0 0 613.5199,646.1 L613.5199,608.1 L603.5199,598.1 L323.7,598.1 A4,4 0 0 0 319.7,602.1" fill="#FEFFDD" style="stroke:#181818;stroke-width:0.5;"/><path d="M603.5199,598.1 L603.5199,606.1 A2,2 0 0 0 605.5199,608.1 L613.5199,608.1 L603.5199,598.1" fill="#FEFFDD" style="stroke:#181818;stroke-width:0.5;"/><text fill="#000000" font-family="'PingFang SC'" font-size="15" lengthAdjust="spacing" textLength="183.57" x="325.7" y="619">capacity &#26159;&#26368;&#32456;&#25910;&#25947;&#30446;&#26631;&#65307;</text><text fill="#000000" font-family="'PingFang SC'" font-size="15" lengthAdjust="spacing" textLength="272.8199" x="325.7" y="640">&#19981;&#24320;&#21551;&#25250;&#21344;&#26102;&#24120;&#35201;&#31561; Container &#33258;&#28982;&#32467;&#26463;</text></g><!--link history to overlap--><g class="link" data-entity-1="ent0002" data-entity-2="ent0003" data-link-type="dependency" data-source-line="22" id="lnk8"><path d="M530.42,130.99 C507.49,150.44 485.1255,169.4187 464.0355,187.3087" fill="none" id="history-to-overlap" style="stroke:#475569;stroke-width:1;"/><polygon fill="#475569" points="459.46,191.19,468.9108,188.4184,463.273,187.9556,463.7358,182.3177,459.46,191.19" style="stroke:#475569;stroke-width:1;"/></g><!--link overlap to guaranteed--><g class="link" data-entity-1="ent0003" data-entity-2="ent0004" data-link-type="dependency" data-source-line="23" id="lnk9"><path d="M372.14,253.98 C340.95,272.39 306.457,292.7501 275.267,311.1601" fill="none" id="overlap-to-guaranteed" style="stroke:#475569;stroke-width:1;"/><polygon fill="#475569" points="270.1,314.21,279.8838,313.0799,274.4059,311.6684,275.8173,306.1905,270.1,314.21" style="stroke:#475569;stroke-width:1;"/></g><!--link guaranteed to elastic--><g class="link" data-entity-1="ent0004" data-entity-2="ent0005" data-link-type="dependency" data-source-line="24" id="lnk10"><path d="M212.46,376.93 C207.54,401.19 201.8625,429.1797 196.9425,453.4397" fill="none" id="guaranteed-to-elastic" style="stroke:#475569;stroke-width:1;"/><polygon fill="#475569" points="195.75,459.32,201.459,451.2946,196.7438,454.4198,193.6186,449.7045,195.75,459.32" style="stroke:#475569;stroke-width:1;"/></g><!--link elastic to reclaim--><g class="link" data-entity-1="ent0005" data-entity-2="ent0006" data-link-type="dependency" data-source-line="25" id="lnk11"><path d="M179.4,522.1 C173.41,540.01 167.6753,557.1705 161.1653,576.6105" fill="none" id="elastic-to-reclaim" style="stroke:#475569;stroke-width:1;"/><polygon fill="#475569" points="159.26,582.3,165.9109,575.036,160.8477,577.5588,158.3249,572.4956,159.26,582.3" style="stroke:#475569;stroke-width:1;"/></g><!--link reclaim to verify--><g class="link" data-entity-1="ent0006" data-entity-2="ent0007" data-link-type="dependency" data-source-line="26" id="lnk12"><path d="M226.45,665.99 C264.91,685.44 304.7456,705.5925 340.1256,723.4825" fill="none" id="reclaim-to-verify" style="stroke:#475569;stroke-width:1;"/><polygon fill="#475569" points="345.48,726.19,339.2534,718.5592,341.018,723.9338,335.6434,725.6984,345.48,726.19" style="stroke:#475569;stroke-width:1;"/></g><!--reverse link history to verify--><g class="link" data-entity-1="ent0002" data-entity-2="ent0007" data-link-type="dependency" data-source-line="27" id="lnk14"><path d="M627.9143,135.3593 C649.4743,159.3093 666.61,187.12 666.61,221.6 C666.61,221.6 666.61,221.6 666.61,625.1 C666.61,680.28 619.51,712.31 565.33,730.9" fill="none" id="history-backto-verify" style="stroke:#475569;stroke-width:1;stroke-dasharray:7,7;"/><polygon fill="#475569" points="623.9,130.9,626.9486,140.2652,627.2453,134.6161,632.8943,134.9127,623.9,130.9" style="stroke:#475569;stroke-width:1;"/><text fill="#000000" font-family="'PingFang SC'" font-size="15" lengthAdjust="spacing" textLength="60" x="667.61" y="423.5">&#23450;&#26399;&#37325;&#31639;</text></g><?plantuml-src TLDVJzjM57_tfxWYptIbD8NseL8QugUgcihJfBpS9YPOTUp8SSROLCbqXAGe954B3IM10DLMchOEAnqB-KC-p7okxQT-XHx7SJ3Lzc9RvrwVt_dzEPgeIGBvAVBu4N5scr2iWN7X52hMthfjNDh6aTafG_s0RPzpNFQfA6UeIjFa2KqyJQbAJav65KbHoSgog0c1ywImH7EInYkozeYc1JBreoYdU2gdo69qwh_lBOg_2cGc73ZCBjEaie8_aYKgPOFjHyW9HPK5bSm7wX5LLLQyYKAtvyBXEtU3Fma93IT0ihznX3nGrAIWZk_EpjwU2OVTwdUyGlmy7-6ZUEAEEAxTv6VcRaMuPnntrN8AoXjG-SngvqxjY_MY49TPk-BfYIJJL4wI7mYL92L1DS7zpWXo4gd5PRFNWyqZA9xQbvV_wcjHnA6YIypjjJF44XWbLgoInOUHAKApP5dCQegwIaAnc_mjFdPjYBDJqFjEOGigXr3SO0VLk0olMcQt3lapPzk0V_um1mtxIzCU3A1n0jMIsT6jLWqgRw7GjSgd8m3bPq6LQ8Q45Xx48jS1pE6-tLxp4a8ID4CJehOQbwswmGuBrgSNS9dt982DF0pppb4FgctOFC4qEGsT_VLy193AeI6o9g0GeOKe7utDNIFHls3wEoXriGssVezlLrUej45lMjidN_kbDFr5JEVIq_u4n7bJDJkRravfr5-GQ5OJ4-XUZ9-DNcjk_xtEkbKlq77PBhIizNEhzuhjDrdnDSceWf3EQA8Yuzcxvz1kmk2bFTmDJZp1T3T4h-5a8qp4aAYOHio5s9tvI13JQPLGD7HYv04QO7RsN3VHsd4Ay0jDiumQ-imQ7zsLAxv7gbQvC6gEXeXBgnEnE3y2qxWVylHztp7ETywlNutD1HZufsEPE5yklpwcmlcK_Bet1JSUvaOkS-F-98pt21XxhD7qQ72Sh6W2KSNKiaQK9VyMhb5aiWBsyGSdl-KSxxDYYxt-X3gYiNZ3x6pPlm_CtblxwCHgDC4u80kZ1U9GA-Bs_RvxW2KXS746-mLpCFJamwVPBNkoUevwAC5DGRczwBgc4DWuGofUq37b_ulggqIk4i5sswoXMxqYXeljrBsj-DglUwoWh-CoiCrZs3fqyzpfs7-k8J2vMlbW7YV0tm00?></g></svg>