<svg xmlns="http://www.w3.org/2000/svg" viewBox="0 0 1200 720" role="img" aria-label="数据系统文章封面">
  <rect width="1200" height="720" fill="#ded8cd"/>
  <path d="M0 0h1200v18H0z" fill="#b95832"/>
  <text x="74" y="124" font-family="monospace" font-size="26" letter-spacing="7" fill="#6f6a63">DATA / DISTRIBUTED SYSTEM</text>
  <text x="70" y="282" font-family="'Songti SC',serif" font-size="110" font-weight="700" fill="#1f292b">数据系统</text>
  <text x="76" y="354" font-family="'Noto Sans SC',sans-serif" font-size="28" fill="#6f6a63">同步、存储与计算</text>
  <ellipse cx="866" cy="198" rx="190" ry="70" fill="none" stroke="#1f292b" stroke-width="8"/>
  <path d="M676 198v260c0 39 85 70 190 70s190-31 190-70V198M676 328c0 39 85 70 190 70s190-31 190-70" fill="none" stroke="#1f292b" stroke-width="8"/>
  <path d="M676 262c0 39 85 70 190 70s190-31 190-70M676 392c0 39 85 70 190 70s190-31 190-70" fill="none" stroke="#b95832" stroke-width="9"/>
</svg>
